%TF.GenerationSoftware,KiCad,Pcbnew,7.0.1*%
%TF.CreationDate,2023-04-06T09:57:02+02:00*%
%TF.ProjectId,OBJEX-DoorSensor_v1.2,4f424a45-582d-4446-9f6f-7253656e736f,1.2*%
%TF.SameCoordinates,Original*%
%TF.FileFunction,Paste,Top*%
%TF.FilePolarity,Positive*%
%FSLAX46Y46*%
G04 Gerber Fmt 4.6, Leading zero omitted, Abs format (unit mm)*
G04 Created by KiCad (PCBNEW 7.0.1) date 2023-04-06 09:57:02*
%MOMM*%
%LPD*%
G01*
G04 APERTURE LIST*
G04 Aperture macros list*
%AMRoundRect*
0 Rectangle with rounded corners*
0 $1 Rounding radius*
0 $2 $3 $4 $5 $6 $7 $8 $9 X,Y pos of 4 corners*
0 Add a 4 corners polygon primitive as box body*
4,1,4,$2,$3,$4,$5,$6,$7,$8,$9,$2,$3,0*
0 Add four circle primitives for the rounded corners*
1,1,$1+$1,$2,$3*
1,1,$1+$1,$4,$5*
1,1,$1+$1,$6,$7*
1,1,$1+$1,$8,$9*
0 Add four rect primitives between the rounded corners*
20,1,$1+$1,$2,$3,$4,$5,0*
20,1,$1+$1,$4,$5,$6,$7,0*
20,1,$1+$1,$6,$7,$8,$9,0*
20,1,$1+$1,$8,$9,$2,$3,0*%
G04 Aperture macros list end*
%ADD10C,0.010000*%
%ADD11R,0.310000X0.500000*%
%ADD12R,0.310000X0.650000*%
%ADD13R,1.300000X1.000000*%
%ADD14RoundRect,0.200000X-0.200000X-0.275000X0.200000X-0.275000X0.200000X0.275000X-0.200000X0.275000X0*%
%ADD15RoundRect,0.135000X-0.185000X0.135000X-0.185000X-0.135000X0.185000X-0.135000X0.185000X0.135000X0*%
%ADD16RoundRect,0.135000X-0.135000X-0.185000X0.135000X-0.185000X0.135000X0.185000X-0.135000X0.185000X0*%
%ADD17R,0.350000X0.500000*%
%ADD18R,0.900000X0.440000*%
%ADD19R,0.300000X0.340000*%
%ADD20RoundRect,0.112500X0.112500X-0.187500X0.112500X0.187500X-0.112500X0.187500X-0.112500X-0.187500X0*%
%ADD21RoundRect,0.150000X0.150000X-0.587500X0.150000X0.587500X-0.150000X0.587500X-0.150000X-0.587500X0*%
%ADD22R,0.900000X0.400000*%
%ADD23RoundRect,0.218750X0.256250X-0.218750X0.256250X0.218750X-0.256250X0.218750X-0.256250X-0.218750X0*%
%ADD24RoundRect,0.140000X0.170000X-0.140000X0.170000X0.140000X-0.170000X0.140000X-0.170000X-0.140000X0*%
%ADD25R,1.219200X0.508000*%
%ADD26RoundRect,0.140000X-0.140000X-0.170000X0.140000X-0.170000X0.140000X0.170000X-0.140000X0.170000X0*%
%ADD27RoundRect,0.140000X0.140000X0.170000X-0.140000X0.170000X-0.140000X-0.170000X0.140000X-0.170000X0*%
%ADD28RoundRect,0.140000X-0.170000X0.140000X-0.170000X-0.140000X0.170000X-0.140000X0.170000X0.140000X0*%
%ADD29RoundRect,0.150000X0.587500X0.150000X-0.587500X0.150000X-0.587500X-0.150000X0.587500X-0.150000X0*%
%ADD30RoundRect,0.135000X0.135000X0.185000X-0.135000X0.185000X-0.135000X-0.185000X0.135000X-0.185000X0*%
%ADD31RoundRect,0.135000X0.185000X-0.135000X0.185000X0.135000X-0.185000X0.135000X-0.185000X-0.135000X0*%
%ADD32RoundRect,0.150000X0.150000X-0.512500X0.150000X0.512500X-0.150000X0.512500X-0.150000X-0.512500X0*%
%ADD33R,0.600000X1.100000*%
%ADD34RoundRect,0.225000X0.250000X-0.225000X0.250000X0.225000X-0.250000X0.225000X-0.250000X-0.225000X0*%
%ADD35RoundRect,0.125000X-0.125000X-0.137500X0.125000X-0.137500X0.125000X0.137500X-0.125000X0.137500X0*%
%ADD36RoundRect,0.218750X0.218750X0.256250X-0.218750X0.256250X-0.218750X-0.256250X0.218750X-0.256250X0*%
%ADD37R,0.800000X0.400000*%
%ADD38R,0.400000X0.800000*%
%ADD39R,1.450000X1.450000*%
%ADD40R,0.700000X0.700000*%
%ADD41R,0.200000X0.339999*%
%ADD42R,0.259999X0.339999*%
%ADD43R,1.200000X1.000000*%
%ADD44R,1.300000X2.340000*%
%ADD45RoundRect,0.041300X0.618700X0.253700X-0.618700X0.253700X-0.618700X-0.253700X0.618700X-0.253700X0*%
%ADD46R,0.400000X0.900000*%
%ADD47RoundRect,0.225000X-0.250000X0.225000X-0.250000X-0.225000X0.250000X-0.225000X0.250000X0.225000X0*%
G04 APERTURE END LIST*
%TO.C,U7*%
D10*
X143750000Y-79550000D02*
X142300000Y-79550000D01*
X142300000Y-78700000D01*
X142900000Y-78100000D01*
X143750000Y-78100000D01*
X143750000Y-79550000D01*
G36*
X143750000Y-79550000D02*
G01*
X142300000Y-79550000D01*
X142300000Y-78700000D01*
X142900000Y-78100000D01*
X143750000Y-78100000D01*
X143750000Y-79550000D01*
G37*
%TD*%
D11*
%TO.C,Q6*%
X137750000Y-106225000D03*
X138750000Y-106225000D03*
D12*
X138250000Y-104500000D03*
D13*
X138250000Y-105325000D03*
%TD*%
D14*
%TO.C,R5*%
X150575000Y-110800000D03*
X152225000Y-110800000D03*
%TD*%
D15*
%TO.C,R15*%
X147750000Y-95990000D03*
X147750000Y-97010000D03*
%TD*%
D16*
%TO.C,R1*%
X136310000Y-82300000D03*
X137330000Y-82300000D03*
%TD*%
D17*
%TO.C,Q3*%
X138825000Y-108670000D03*
X138175000Y-108670000D03*
D18*
X138500000Y-109360000D03*
D19*
X138500000Y-109750000D03*
%TD*%
D20*
%TO.C,D5*%
X139400000Y-123500000D03*
X139400000Y-121400000D03*
%TD*%
D21*
%TO.C,Q4*%
X144050000Y-91637500D03*
X145950000Y-91637500D03*
X145000000Y-89762500D03*
%TD*%
D22*
%TO.C,U4*%
X148000000Y-113350000D03*
X148000000Y-112700000D03*
X148000000Y-112050000D03*
X146400000Y-112050000D03*
X146400000Y-113350000D03*
%TD*%
D23*
%TO.C,D2*%
X143800000Y-116787500D03*
X143800000Y-115212500D03*
%TD*%
D15*
%TO.C,R13*%
X144000000Y-107250000D03*
X144000000Y-108270000D03*
%TD*%
D24*
%TO.C,C12*%
X144000000Y-110480000D03*
X144000000Y-109520000D03*
%TD*%
D25*
%TO.C,U2*%
X143000000Y-103800000D03*
X143000000Y-104750000D03*
X143000000Y-105700000D03*
X145286000Y-105700000D03*
X145286000Y-103800000D03*
%TD*%
D21*
%TO.C,Q5*%
X139050000Y-96337500D03*
X140950000Y-96337500D03*
X140000000Y-94462500D03*
%TD*%
D26*
%TO.C,C15*%
X147551863Y-103011410D03*
X148511863Y-103011410D03*
%TD*%
D27*
%TO.C,C14*%
X146210000Y-98800000D03*
X145250000Y-98800000D03*
%TD*%
D28*
%TO.C,C3*%
X141300000Y-90095000D03*
X141300000Y-91055000D03*
%TD*%
D29*
%TO.C,U3*%
X151525000Y-98350000D03*
X153400000Y-99300000D03*
X153400000Y-97400000D03*
%TD*%
D30*
%TO.C,R20*%
X142310000Y-115000000D03*
X141290000Y-115000000D03*
%TD*%
D31*
%TO.C,R4*%
X144143000Y-102010000D03*
X144143000Y-100990000D03*
%TD*%
D32*
%TO.C,U8*%
X147550000Y-101387500D03*
X148500000Y-101387500D03*
X149450000Y-101387500D03*
X149450000Y-99112500D03*
X147550000Y-99112500D03*
%TD*%
D33*
%TO.C,Y1*%
X139900000Y-88575000D03*
X141300000Y-88575000D03*
%TD*%
D34*
%TO.C,C8*%
X142419175Y-110472907D03*
X142419175Y-108922907D03*
%TD*%
%TO.C,C6*%
X142643000Y-102025000D03*
X142643000Y-100475000D03*
%TD*%
D30*
%TO.C,R10*%
X146393421Y-110478933D03*
X145373421Y-110478933D03*
%TD*%
D35*
%TO.C,U6*%
X143800000Y-94312500D03*
X144600000Y-94312500D03*
X145400000Y-94312500D03*
X146200000Y-94312500D03*
X146200000Y-96687500D03*
X145400000Y-96687500D03*
X144600000Y-96687500D03*
X143800000Y-96687500D03*
%TD*%
D36*
%TO.C,D3*%
X145787500Y-118487500D03*
X144212500Y-118487500D03*
%TD*%
D37*
%TO.C,U7*%
X139100000Y-76800000D03*
X139100000Y-77600000D03*
X139100000Y-78400000D03*
X139100000Y-79200000D03*
X139100000Y-80000000D03*
X139100000Y-80800000D03*
X139100000Y-81600000D03*
X139100000Y-82400000D03*
X139100000Y-83200000D03*
X139100000Y-84000000D03*
X139100000Y-84800000D03*
D38*
X140200000Y-85700000D03*
X141000000Y-85700000D03*
X141800000Y-85700000D03*
X142600000Y-85700000D03*
X143400000Y-85700000D03*
X144200000Y-85700000D03*
X145000000Y-85700000D03*
X145800000Y-85700000D03*
X146600000Y-85700000D03*
X147400000Y-85700000D03*
X148200000Y-85700000D03*
X149000000Y-85700000D03*
X149800000Y-85700000D03*
D37*
X150900000Y-84800000D03*
X150900000Y-84000000D03*
X150900000Y-83200000D03*
X150900000Y-82400000D03*
X150900000Y-81600000D03*
X150900000Y-80800000D03*
X150900000Y-80000000D03*
X150900000Y-79200000D03*
X150900000Y-78400000D03*
X150900000Y-77600000D03*
X150900000Y-76800000D03*
D38*
X149800000Y-75900000D03*
X149000000Y-75900000D03*
X148200000Y-75900000D03*
X147400000Y-75900000D03*
X146600000Y-75900000D03*
X145800000Y-75900000D03*
X145000000Y-75900000D03*
X144200000Y-75900000D03*
X143400000Y-75900000D03*
X142600000Y-75900000D03*
X141800000Y-75900000D03*
X141000000Y-75900000D03*
X140200000Y-75900000D03*
D39*
X145000000Y-78825000D03*
X146975000Y-78825000D03*
X146975000Y-80800000D03*
X146975000Y-82775000D03*
X145000000Y-82775000D03*
X143025000Y-82775000D03*
X143025000Y-80800000D03*
X145000000Y-80800000D03*
D40*
X150950000Y-75850000D03*
X150950000Y-85750000D03*
X139050000Y-85750000D03*
X139050000Y-75850000D03*
%TD*%
D31*
%TO.C,R8*%
X147500000Y-110510000D03*
X147500000Y-109490000D03*
%TD*%
D41*
%TO.C,Q2*%
X140060000Y-105929999D03*
X140440000Y-105929999D03*
D42*
X140250000Y-105070001D03*
%TD*%
D15*
%TO.C,R14*%
X145250000Y-107250000D03*
X145250000Y-108270000D03*
%TD*%
D31*
%TO.C,R16*%
X142500000Y-94510000D03*
X142500000Y-93490000D03*
%TD*%
D27*
%TO.C,C4*%
X137300000Y-79700000D03*
X136340000Y-79700000D03*
%TD*%
D43*
%TO.C,S2*%
X147550000Y-121925000D03*
X147550000Y-123625000D03*
X141950000Y-121925000D03*
X141950000Y-123625000D03*
%TD*%
D24*
%TO.C,C9*%
X140250000Y-103980000D03*
X140250000Y-103020000D03*
%TD*%
D31*
%TO.C,R17*%
X142500000Y-97310000D03*
X142500000Y-96290000D03*
%TD*%
D23*
%TO.C,D1*%
X146200000Y-116750000D03*
X146200000Y-115175000D03*
%TD*%
D44*
%TO.C,S1*%
X152600000Y-107570000D03*
X152600000Y-89230000D03*
%TD*%
D15*
%TO.C,R2*%
X148200000Y-87665000D03*
X148200000Y-88685000D03*
%TD*%
D24*
%TO.C,C10*%
X141300000Y-103980000D03*
X141300000Y-103020000D03*
%TD*%
D15*
%TO.C,R12*%
X136158584Y-108676839D03*
X136158584Y-109696839D03*
%TD*%
D31*
%TO.C,R21*%
X142800000Y-119310000D03*
X142800000Y-118290000D03*
%TD*%
D27*
%TO.C,C5*%
X137280000Y-78400000D03*
X136320000Y-78400000D03*
%TD*%
D16*
%TO.C,R3*%
X147690000Y-115000000D03*
X148710000Y-115000000D03*
%TD*%
D45*
%TO.C,Q1*%
X139600000Y-113950000D03*
X139600000Y-112050000D03*
X137570000Y-113000000D03*
%TD*%
D15*
%TO.C,R9*%
X148750000Y-109490000D03*
X148750000Y-110510000D03*
%TD*%
D28*
%TO.C,C1*%
X137331838Y-83459373D03*
X137331838Y-84419373D03*
%TD*%
D14*
%TO.C,R6*%
X150575000Y-114300000D03*
X152225000Y-114300000D03*
%TD*%
D30*
%TO.C,R11*%
X142010000Y-107240000D03*
X140990000Y-107240000D03*
%TD*%
D46*
%TO.C,U5*%
X144650000Y-111790000D03*
X144000000Y-111790000D03*
X143350000Y-111790000D03*
X143350000Y-113390000D03*
X144650000Y-113390000D03*
%TD*%
D31*
%TO.C,R18*%
X147750000Y-95010000D03*
X147750000Y-93990000D03*
%TD*%
D28*
%TO.C,C11*%
X146500000Y-107260000D03*
X146500000Y-108220000D03*
%TD*%
D47*
%TO.C,C7*%
X145643000Y-100475000D03*
X145643000Y-102025000D03*
%TD*%
D30*
%TO.C,R19*%
X137330000Y-81000000D03*
X136310000Y-81000000D03*
%TD*%
D14*
%TO.C,R7*%
X150575000Y-112550000D03*
X152225000Y-112550000D03*
%TD*%
D28*
%TO.C,C2*%
X139900000Y-90100000D03*
X139900000Y-91060000D03*
%TD*%
M02*
