%TF.GenerationSoftware,KiCad,Pcbnew,7.0.1*%
%TF.CreationDate,2023-04-07T09:45:08+02:00*%
%TF.ProjectId,OBJEX-DoorSensor_v1.2,4f424a45-582d-4446-9f6f-7253656e736f,1.2*%
%TF.SameCoordinates,Original*%
%TF.FileFunction,Copper,L2,Bot*%
%TF.FilePolarity,Positive*%
%FSLAX46Y46*%
G04 Gerber Fmt 4.6, Leading zero omitted, Abs format (unit mm)*
G04 Created by KiCad (PCBNEW 7.0.1) date 2023-04-07 09:45:08*
%MOMM*%
%LPD*%
G01*
G04 APERTURE LIST*
G04 Aperture macros list*
%AMRoundRect*
0 Rectangle with rounded corners*
0 $1 Rounding radius*
0 $2 $3 $4 $5 $6 $7 $8 $9 X,Y pos of 4 corners*
0 Add a 4 corners polygon primitive as box body*
4,1,4,$2,$3,$4,$5,$6,$7,$8,$9,$2,$3,0*
0 Add four circle primitives for the rounded corners*
1,1,$1+$1,$2,$3*
1,1,$1+$1,$4,$5*
1,1,$1+$1,$6,$7*
1,1,$1+$1,$8,$9*
0 Add four rect primitives between the rounded corners*
20,1,$1+$1,$2,$3,$4,$5,0*
20,1,$1+$1,$4,$5,$6,$7,0*
20,1,$1+$1,$6,$7,$8,$9,0*
20,1,$1+$1,$8,$9,$2,$3,0*%
G04 Aperture macros list end*
%TA.AperFunction,ComponentPad*%
%ADD10RoundRect,0.750000X-1.750000X-0.750000X1.750000X-0.750000X1.750000X0.750000X-1.750000X0.750000X0*%
%TD*%
%TA.AperFunction,SMDPad,CuDef*%
%ADD11R,1.500000X1.500000*%
%TD*%
%TA.AperFunction,ViaPad*%
%ADD12C,0.600000*%
%TD*%
%TA.AperFunction,Conductor*%
%ADD13C,0.250000*%
%TD*%
%TA.AperFunction,Conductor*%
%ADD14C,0.300000*%
%TD*%
G04 APERTURE END LIST*
D10*
%TO.P,U1,1,-*%
%TO.N,GND*%
X150750000Y-117600000D03*
%TD*%
%TO.P,U10,1,+*%
%TO.N,Net-(D5-A)*%
X139250000Y-117600000D03*
%TD*%
D11*
%TO.P,TP1,1,1*%
%TO.N,Net-(D5-A)*%
X139200000Y-122600000D03*
%TD*%
%TO.P,TP2,1,1*%
%TO.N,GND*%
X150800000Y-122600000D03*
%TD*%
D12*
%TO.N,GND*%
X137500000Y-110000000D03*
%TO.N,/Microcontroller + WiFi-BLE/AUTO_TURN_OFF*%
X137250000Y-107000000D03*
%TO.N,/Microcontroller + WiFi-BLE/EN*%
X137300000Y-93100000D03*
X137800000Y-85500000D03*
X145500000Y-122900000D03*
%TO.N,GND*%
X154000000Y-123000000D03*
X139100000Y-104000000D03*
X153000000Y-96000000D03*
X137000000Y-115000000D03*
X154000000Y-122000000D03*
X143200000Y-95100000D03*
X147000000Y-119000000D03*
X150500000Y-95000000D03*
X150500000Y-94000000D03*
X142000000Y-77000000D03*
X154000000Y-85000000D03*
X145000000Y-109250000D03*
X141000000Y-77000000D03*
X142400000Y-111500000D03*
X145000000Y-120000000D03*
X153000000Y-87000000D03*
X138000000Y-111000000D03*
X140400000Y-84000000D03*
X137000000Y-102000000D03*
X154000000Y-86000000D03*
X148000000Y-77000000D03*
X143200000Y-99400000D03*
X146500000Y-97600000D03*
X150500000Y-108000000D03*
X154000000Y-121000000D03*
X149750000Y-84050000D03*
X137000000Y-76000000D03*
X137000000Y-104000000D03*
X150500000Y-96000000D03*
X146250000Y-93250000D03*
X154000000Y-124000000D03*
X141200000Y-84000000D03*
X147000000Y-120000000D03*
X149000000Y-77000000D03*
X140500000Y-93250000D03*
X153000000Y-92000000D03*
X136000000Y-77000000D03*
X153000000Y-85000000D03*
X148950000Y-84050000D03*
X153000000Y-94000000D03*
X145000000Y-117250000D03*
X150500000Y-92000000D03*
X150500000Y-93000000D03*
X140400000Y-83200000D03*
X145700000Y-104900000D03*
X153000000Y-86000000D03*
X146000000Y-120000000D03*
X150500000Y-109500000D03*
X147000000Y-77000000D03*
X139100000Y-102600000D03*
X137000000Y-77000000D03*
X137000000Y-112000000D03*
X144200000Y-104600000D03*
X153000000Y-95000000D03*
X142500000Y-87600000D03*
X139100000Y-103300000D03*
X138000000Y-115000000D03*
X153000000Y-93000000D03*
X142769690Y-107855149D03*
X146000000Y-77000000D03*
X154000000Y-120000000D03*
X145750000Y-109250000D03*
X143000000Y-77000000D03*
X149750000Y-109500000D03*
X137000000Y-111000000D03*
X147000000Y-118000000D03*
X142500000Y-86900000D03*
X145000000Y-77000000D03*
X150500000Y-108750000D03*
X137000000Y-103000000D03*
X144000000Y-97900000D03*
X137000000Y-114000000D03*
X144700000Y-97900000D03*
X144000000Y-77000000D03*
X144000000Y-120000000D03*
X146500000Y-109250000D03*
X149750000Y-83250000D03*
X145500000Y-93250000D03*
%TO.N,+3V3*%
X148997587Y-88673700D03*
X149500000Y-103600000D03*
%TO.N,/Microcontroller + WiFi-BLE/BATT_LVL*%
X147200000Y-107000000D03*
X141400000Y-82300000D03*
%TO.N,+BATT*%
X141200000Y-120000000D03*
X145000000Y-114600000D03*
%TO.N,Net-(D5-A)*%
X139400000Y-120300000D03*
%TO.N,/Microcontroller + WiFi-BLE/AUTO_TURN_OFF*%
X144200000Y-87500000D03*
%TO.N,/Microcontroller + WiFi-BLE/GPIO2*%
X139000000Y-87200000D03*
X138000000Y-81700000D03*
%TO.N,/Microcontroller + WiFi-BLE/LED_RED*%
X149700000Y-115400000D03*
X148000000Y-84750000D03*
%TO.N,Net-(U2-EN)*%
X144100000Y-105700000D03*
X144200000Y-103100000D03*
%TO.N,Net-(U3-OUT)*%
X149100000Y-113400000D03*
X145413902Y-111801883D03*
%TO.N,/Microcontroller + WiFi-BLE/IN_STATUS*%
X146000000Y-86900000D03*
X148600000Y-108500000D03*
%TO.N,/Microcontroller + WiFi-BLE/LED_GREEN*%
X143400000Y-84750000D03*
X140300000Y-115300000D03*
%TO.N,/Microcontroller + WiFi-BLE/LED_BLUE*%
X142500000Y-116800000D03*
X145250000Y-84750000D03*
%TO.N,/Microcontroller + WiFi-BLE/TX{slash}GPIO21*%
X148700000Y-80400000D03*
X137600000Y-88100000D03*
%TO.N,/Microcontroller + WiFi-BLE/RX{slash}GPIO20*%
X137800000Y-90400000D03*
X149300000Y-81200000D03*
%TO.N,/Microcontroller + WiFi-BLE/DTR{slash}GPIO9*%
X140200000Y-92400000D03*
X137600000Y-95400000D03*
%TD*%
D13*
%TO.N,/Microcontroller + WiFi-BLE/LED_GREEN*%
X141200000Y-86950000D02*
X143400000Y-84750000D01*
X141200000Y-105200000D02*
X141200000Y-86950000D01*
X140150000Y-106250000D02*
X141200000Y-105200000D01*
X136750000Y-106250000D02*
X140150000Y-106250000D01*
X137250000Y-109000000D02*
X136500000Y-108250000D01*
X136500000Y-106500000D02*
X136750000Y-106250000D01*
X138800000Y-109550000D02*
X138250000Y-109000000D01*
X138800000Y-113800000D02*
X138800000Y-109550000D01*
X136500000Y-108250000D02*
X136500000Y-106500000D01*
X140300000Y-115300000D02*
X138800000Y-113800000D01*
X138250000Y-109000000D02*
X137250000Y-109000000D01*
%TO.N,/Microcontroller + WiFi-BLE/AUTO_TURN_OFF*%
X137500000Y-107250000D02*
X137250000Y-107000000D01*
X139250000Y-107250000D02*
X137500000Y-107250000D01*
X140250000Y-107250000D02*
X139250000Y-107250000D01*
X141700000Y-105800000D02*
X140250000Y-107250000D01*
%TO.N,/Microcontroller + WiFi-BLE/EN*%
X138300000Y-88500000D02*
X137100000Y-89700000D01*
X137100000Y-92300000D02*
X137300000Y-92500000D01*
X141400000Y-124100000D02*
X142600000Y-122900000D01*
X137300000Y-92500000D02*
X137300000Y-93100000D01*
X137300000Y-93900000D02*
X136100000Y-95100000D01*
X138300000Y-86000000D02*
X138300000Y-88500000D01*
X137100000Y-89700000D02*
X137100000Y-92300000D01*
X136100000Y-95100000D02*
X136100000Y-123100000D01*
X137100000Y-124100000D02*
X141400000Y-124100000D01*
X136100000Y-123100000D02*
X137100000Y-124100000D01*
X137300000Y-93100000D02*
X137300000Y-93900000D01*
X137800000Y-85500000D02*
X138300000Y-86000000D01*
X142600000Y-122900000D02*
X145500000Y-122900000D01*
%TO.N,+3V3*%
X148997587Y-88673700D02*
X149500000Y-89176113D01*
X149500000Y-89176113D02*
X149500000Y-103600000D01*
%TO.N,/Microcontroller + WiFi-BLE/BATT_LVL*%
X147200000Y-107000000D02*
X147200000Y-105900000D01*
X145400000Y-83000000D02*
X142100000Y-83000000D01*
X146400000Y-84800000D02*
X146400000Y-84000000D01*
X147600000Y-105500000D02*
X147600000Y-90600000D01*
X146400000Y-84000000D02*
X145400000Y-83000000D01*
X145300000Y-88300000D02*
X145300000Y-85900000D01*
X145300000Y-85900000D02*
X146400000Y-84800000D01*
X147600000Y-90600000D02*
X145300000Y-88300000D01*
X147200000Y-105900000D02*
X147600000Y-105500000D01*
X142100000Y-83000000D02*
X141400000Y-82300000D01*
D14*
%TO.N,+BATT*%
X141200000Y-120000000D02*
X145000000Y-116200000D01*
X145000000Y-116200000D02*
X145000000Y-114600000D01*
%TO.N,Net-(D5-A)*%
X139200000Y-122600000D02*
X139200000Y-121300000D01*
X139400000Y-121100000D02*
X139400000Y-120300000D01*
X139200000Y-121300000D02*
X139400000Y-121100000D01*
D13*
%TO.N,/Microcontroller + WiFi-BLE/AUTO_TURN_OFF*%
X141700000Y-105800000D02*
X141700000Y-98400000D01*
X141700000Y-98400000D02*
X141700000Y-90500000D01*
X144200000Y-88000000D02*
X144200000Y-87500000D01*
X141700000Y-90500000D02*
X144200000Y-88000000D01*
%TO.N,/Microcontroller + WiFi-BLE/GPIO2*%
X139000000Y-84500000D02*
X138000000Y-83500000D01*
X138000000Y-83500000D02*
X138000000Y-81700000D01*
X139000000Y-84500000D02*
X139000000Y-87200000D01*
%TO.N,/Microcontroller + WiFi-BLE/LED_RED*%
X149700000Y-115400000D02*
X151400000Y-113700000D01*
X151400000Y-88150000D02*
X148000000Y-84750000D01*
X151400000Y-113700000D02*
X151400000Y-88150000D01*
%TO.N,Net-(U2-EN)*%
X144900000Y-103800000D02*
X144200000Y-103100000D01*
X144100000Y-105700000D02*
X144900000Y-104900000D01*
X144900000Y-104900000D02*
X144900000Y-103800000D01*
%TO.N,Net-(U3-OUT)*%
X149100000Y-113400000D02*
X147012019Y-113400000D01*
X147012019Y-113400000D02*
X145413902Y-111801883D01*
%TO.N,/Microcontroller + WiFi-BLE/IN_STATUS*%
X148598086Y-108542685D02*
X148598086Y-89498086D01*
X148598086Y-89498086D02*
X146000000Y-86900000D01*
%TO.N,/Microcontroller + WiFi-BLE/LED_BLUE*%
X141100000Y-107300000D02*
X142300000Y-106100000D01*
X142500000Y-116800000D02*
X141100000Y-115400000D01*
X141100000Y-115400000D02*
X141100000Y-107300000D01*
X142300000Y-106100000D02*
X142300000Y-90600000D01*
X144800000Y-85200000D02*
X145250000Y-84750000D01*
X144800000Y-88100000D02*
X144800000Y-85200000D01*
X142300000Y-90600000D02*
X144800000Y-88100000D01*
%TO.N,/Microcontroller + WiFi-BLE/TX{slash}GPIO21*%
X137600000Y-86800000D02*
X136900000Y-86100000D01*
X136900000Y-81400000D02*
X137900000Y-80400000D01*
X137900000Y-80400000D02*
X148700000Y-80400000D01*
X136900000Y-86100000D02*
X136900000Y-81400000D01*
X137600000Y-88100000D02*
X137600000Y-86800000D01*
%TO.N,/Microcontroller + WiFi-BLE/RX{slash}GPIO20*%
X139700000Y-88500000D02*
X137800000Y-90400000D01*
X140500000Y-81200000D02*
X139700000Y-82000000D01*
X149300000Y-81200000D02*
X140500000Y-81200000D01*
X139700000Y-82000000D02*
X139700000Y-88500000D01*
%TO.N,/Microcontroller + WiFi-BLE/DTR{slash}GPIO9*%
X137600000Y-94600000D02*
X139800000Y-92400000D01*
X139800000Y-92400000D02*
X140200000Y-92400000D01*
X137600000Y-95400000D02*
X137600000Y-94600000D01*
%TD*%
%TA.AperFunction,Conductor*%
%TO.N,GND*%
G36*
X136587818Y-108817257D02*
G01*
X136637180Y-108847506D01*
X136999391Y-109209718D01*
X137005955Y-109216282D01*
X137013263Y-109224256D01*
X137037545Y-109253194D01*
X137070266Y-109272085D01*
X137079360Y-109277878D01*
X137110316Y-109299554D01*
X137110317Y-109299554D01*
X137111201Y-109300173D01*
X137135891Y-109310400D01*
X137136954Y-109310587D01*
X137136955Y-109310588D01*
X137174146Y-109317145D01*
X137184704Y-109319486D01*
X137221191Y-109329263D01*
X137221192Y-109329262D01*
X137221193Y-109329263D01*
X137258811Y-109325971D01*
X137269618Y-109325500D01*
X138063812Y-109325500D01*
X138111265Y-109334939D01*
X138151493Y-109361819D01*
X138438181Y-109648508D01*
X138465061Y-109688736D01*
X138474500Y-109736189D01*
X138474500Y-113780372D01*
X138474028Y-113791180D01*
X138470735Y-113828807D01*
X138480512Y-113865296D01*
X138482853Y-113875852D01*
X138489599Y-113914107D01*
X138499829Y-113938803D01*
X138500446Y-113939684D01*
X138522112Y-113970627D01*
X138527915Y-113979736D01*
X138546806Y-114012455D01*
X138575742Y-114036735D01*
X138583718Y-114044044D01*
X139757559Y-115217886D01*
X139780762Y-115250063D01*
X139792616Y-115287920D01*
X139814834Y-115442457D01*
X139874623Y-115573374D01*
X139979403Y-115694298D01*
X140008428Y-115757854D01*
X139998484Y-115827012D01*
X139952729Y-115879816D01*
X139885690Y-115899500D01*
X137444862Y-115899500D01*
X137331448Y-115909583D01*
X137290100Y-115921414D01*
X137145594Y-115962762D01*
X137053779Y-116010723D01*
X136974249Y-116052266D01*
X136824429Y-116174429D01*
X136702266Y-116324249D01*
X136659407Y-116406297D01*
X136615091Y-116454116D01*
X136552641Y-116472844D01*
X136489322Y-116457303D01*
X136442640Y-116411789D01*
X136425500Y-116348884D01*
X136425500Y-108935188D01*
X136439015Y-108878893D01*
X136476615Y-108834870D01*
X136530102Y-108812715D01*
X136587818Y-108817257D01*
G37*
%TD.AperFunction*%
%TA.AperFunction,Conductor*%
G36*
X140808367Y-92588219D02*
G01*
X140856687Y-92633856D01*
X140874500Y-92697889D01*
X140874500Y-105013811D01*
X140865061Y-105061264D01*
X140838181Y-105101492D01*
X140051493Y-105888181D01*
X140011265Y-105915061D01*
X139963812Y-105924500D01*
X136769617Y-105924500D01*
X136758809Y-105924028D01*
X136721193Y-105920736D01*
X136684716Y-105930510D01*
X136674162Y-105932849D01*
X136635905Y-105939595D01*
X136608601Y-105950907D01*
X136589206Y-105956106D01*
X136588758Y-105954435D01*
X136557605Y-105965390D01*
X136492240Y-105951643D01*
X136443490Y-105905982D01*
X136425500Y-105841655D01*
X136425500Y-95286188D01*
X136434939Y-95238735D01*
X136461819Y-95198507D01*
X137062819Y-94597507D01*
X137112182Y-94567257D01*
X137169898Y-94562715D01*
X137223385Y-94584870D01*
X137260985Y-94628893D01*
X137274500Y-94685188D01*
X137274500Y-94965112D01*
X137266682Y-95008445D01*
X137244213Y-95046314D01*
X137174623Y-95126625D01*
X137114834Y-95257542D01*
X137094353Y-95399999D01*
X137114834Y-95542457D01*
X137174623Y-95673374D01*
X137268870Y-95782141D01*
X137268872Y-95782143D01*
X137389947Y-95859953D01*
X137528039Y-95900500D01*
X137671961Y-95900500D01*
X137810053Y-95859953D01*
X137931128Y-95782143D01*
X138025377Y-95673373D01*
X138085165Y-95542457D01*
X138105647Y-95400000D01*
X138085165Y-95257543D01*
X138074790Y-95234826D01*
X138025376Y-95126625D01*
X137955787Y-95046314D01*
X137933318Y-95008445D01*
X137925500Y-94965112D01*
X137925500Y-94786188D01*
X137934939Y-94738735D01*
X137961819Y-94698507D01*
X138300540Y-94359786D01*
X139803883Y-92856441D01*
X139851005Y-92826944D01*
X139906283Y-92821001D01*
X139958600Y-92839807D01*
X139989947Y-92859953D01*
X140128039Y-92900500D01*
X140271961Y-92900500D01*
X140410053Y-92859953D01*
X140531128Y-92782143D01*
X140625377Y-92673373D01*
X140637705Y-92646377D01*
X140680509Y-92595530D01*
X140743421Y-92574091D01*
X140808367Y-92588219D01*
G37*
%TD.AperFunction*%
%TA.AperFunction,Conductor*%
G36*
X138338000Y-75092113D02*
G01*
X138383387Y-75137500D01*
X138400000Y-75199500D01*
X138400000Y-75200000D01*
X151600000Y-75200000D01*
X151600000Y-75199500D01*
X151616613Y-75137500D01*
X151662000Y-75092113D01*
X151724000Y-75075500D01*
X153475469Y-75075500D01*
X153495125Y-75075500D01*
X153504853Y-75075881D01*
X153713117Y-75092272D01*
X153732326Y-75095315D01*
X153930712Y-75142943D01*
X153949204Y-75148951D01*
X154099740Y-75211305D01*
X154137694Y-75227027D01*
X154155024Y-75235856D01*
X154328990Y-75342463D01*
X154344714Y-75353887D01*
X154499865Y-75486398D01*
X154513601Y-75500134D01*
X154646110Y-75655283D01*
X154657538Y-75671011D01*
X154764139Y-75844968D01*
X154772972Y-75862305D01*
X154851045Y-76050788D01*
X154857058Y-76069294D01*
X154904683Y-76267668D01*
X154907727Y-76286886D01*
X154924118Y-76495146D01*
X154924500Y-76504875D01*
X154924500Y-123684458D01*
X154924117Y-123694190D01*
X154907721Y-123902450D01*
X154904677Y-123921668D01*
X154857049Y-124120034D01*
X154851036Y-124138539D01*
X154772961Y-124327016D01*
X154764127Y-124344353D01*
X154657529Y-124518298D01*
X154646092Y-124534039D01*
X154513598Y-124689165D01*
X154499840Y-124702923D01*
X154344709Y-124835415D01*
X154328967Y-124846852D01*
X154155017Y-124953446D01*
X154137680Y-124962279D01*
X153949205Y-125040346D01*
X153930700Y-125046359D01*
X153732327Y-125093984D01*
X153713109Y-125097028D01*
X153569002Y-125108369D01*
X153504342Y-125113458D01*
X153494620Y-125113840D01*
X136504875Y-125113840D01*
X136495146Y-125113458D01*
X136286884Y-125097067D01*
X136267666Y-125094023D01*
X136069286Y-125046397D01*
X136050781Y-125040384D01*
X135862301Y-124962315D01*
X135844964Y-124953482D01*
X135671010Y-124846885D01*
X135655268Y-124835448D01*
X135500131Y-124702951D01*
X135486373Y-124689193D01*
X135353872Y-124534060D01*
X135342435Y-124518318D01*
X135235838Y-124344373D01*
X135227004Y-124327038D01*
X135226995Y-124327016D01*
X135148922Y-124138543D01*
X135142912Y-124120046D01*
X135095279Y-123921657D01*
X135092239Y-123902473D01*
X135075880Y-123694685D01*
X135075500Y-123684979D01*
X135075500Y-123128807D01*
X135770735Y-123128807D01*
X135780512Y-123165296D01*
X135782853Y-123175852D01*
X135789599Y-123214107D01*
X135799829Y-123238803D01*
X135800446Y-123239684D01*
X135822112Y-123270627D01*
X135827915Y-123279736D01*
X135846806Y-123312455D01*
X135875742Y-123336735D01*
X135883718Y-123344044D01*
X136855950Y-124316276D01*
X136863258Y-124324250D01*
X136887545Y-124353194D01*
X136911594Y-124367079D01*
X136920256Y-124372080D01*
X136929379Y-124377892D01*
X136960316Y-124399554D01*
X136960317Y-124399554D01*
X136961198Y-124400171D01*
X136985891Y-124410400D01*
X136986954Y-124410587D01*
X136986955Y-124410588D01*
X137024143Y-124417145D01*
X137034701Y-124419485D01*
X137071193Y-124429264D01*
X137108823Y-124425971D01*
X137119630Y-124425500D01*
X141380373Y-124425500D01*
X141391180Y-124425971D01*
X141428807Y-124429264D01*
X141465324Y-124419478D01*
X141475830Y-124417149D01*
X141513045Y-124410588D01*
X141513047Y-124410586D01*
X141514112Y-124410399D01*
X141538799Y-124400173D01*
X141539682Y-124399554D01*
X141539684Y-124399554D01*
X141570625Y-124377887D01*
X141579722Y-124372091D01*
X141612455Y-124353194D01*
X141636748Y-124324241D01*
X141644035Y-124316289D01*
X141728303Y-124232021D01*
X144074500Y-124232021D01*
X144113758Y-124391295D01*
X144189992Y-124536546D01*
X144189994Y-124536549D01*
X144298769Y-124659331D01*
X144361923Y-124702923D01*
X144433774Y-124752518D01*
X144587155Y-124810688D01*
X144709143Y-124825500D01*
X144790856Y-124825500D01*
X144790857Y-124825500D01*
X144912845Y-124810688D01*
X145066226Y-124752518D01*
X145201229Y-124659332D01*
X145310008Y-124536546D01*
X145386242Y-124391295D01*
X145425500Y-124232021D01*
X145425500Y-124067979D01*
X145386242Y-123908705D01*
X145310008Y-123763454D01*
X145310005Y-123763451D01*
X145310005Y-123763450D01*
X145201230Y-123640668D01*
X145066225Y-123547481D01*
X144912845Y-123489312D01*
X144790857Y-123474500D01*
X144709143Y-123474500D01*
X144648149Y-123481905D01*
X144587154Y-123489312D01*
X144433774Y-123547481D01*
X144298769Y-123640668D01*
X144189994Y-123763450D01*
X144184195Y-123774500D01*
X144113758Y-123908705D01*
X144074500Y-124067979D01*
X144074500Y-124232021D01*
X141728303Y-124232021D01*
X142698507Y-123261819D01*
X142738736Y-123234939D01*
X142786189Y-123225500D01*
X145063162Y-123225500D01*
X145114675Y-123236706D01*
X145156874Y-123268297D01*
X145168872Y-123282143D01*
X145289947Y-123359953D01*
X145428039Y-123400500D01*
X145571961Y-123400500D01*
X145710053Y-123359953D01*
X145831128Y-123282143D01*
X145925377Y-123173373D01*
X145985165Y-123042457D01*
X146005647Y-122900000D01*
X145985165Y-122757543D01*
X145970303Y-122725000D01*
X149800000Y-122725000D01*
X149800000Y-123374625D01*
X149814504Y-123447543D01*
X149869760Y-123530239D01*
X149952456Y-123585495D01*
X150025375Y-123600000D01*
X150675000Y-123600000D01*
X150675000Y-122725000D01*
X150925000Y-122725000D01*
X150925000Y-123600000D01*
X151574625Y-123600000D01*
X151647543Y-123585495D01*
X151730239Y-123530239D01*
X151785495Y-123447543D01*
X151800000Y-123374625D01*
X151800000Y-122725000D01*
X150925000Y-122725000D01*
X150675000Y-122725000D01*
X149800000Y-122725000D01*
X145970303Y-122725000D01*
X145949698Y-122679883D01*
X145925376Y-122626625D01*
X145831129Y-122517858D01*
X145831128Y-122517857D01*
X145764441Y-122475000D01*
X149800000Y-122475000D01*
X150675000Y-122475000D01*
X150675000Y-121600000D01*
X150925000Y-121600000D01*
X150925000Y-122475000D01*
X151800000Y-122475000D01*
X151800000Y-121825375D01*
X151785495Y-121752456D01*
X151730239Y-121669760D01*
X151647543Y-121614504D01*
X151574625Y-121600000D01*
X150925000Y-121600000D01*
X150675000Y-121600000D01*
X150025375Y-121600000D01*
X149952456Y-121614504D01*
X149869760Y-121669760D01*
X149814504Y-121752456D01*
X149800000Y-121825375D01*
X149800000Y-122475000D01*
X145764441Y-122475000D01*
X145710053Y-122440047D01*
X145571961Y-122399500D01*
X145428039Y-122399500D01*
X145289947Y-122440047D01*
X145168873Y-122517856D01*
X145168872Y-122517856D01*
X145168872Y-122517857D01*
X145156874Y-122531702D01*
X145114675Y-122563294D01*
X145063162Y-122574500D01*
X142619619Y-122574500D01*
X142608812Y-122574028D01*
X142606298Y-122573808D01*
X142571191Y-122570736D01*
X142534710Y-122580511D01*
X142524155Y-122582852D01*
X142512814Y-122584851D01*
X142486955Y-122589412D01*
X142486953Y-122589412D01*
X142485897Y-122589599D01*
X142461192Y-122599832D01*
X142429378Y-122622107D01*
X142420261Y-122627915D01*
X142387545Y-122646804D01*
X142363262Y-122675743D01*
X142355956Y-122683715D01*
X141301493Y-123738181D01*
X141261265Y-123765061D01*
X141213812Y-123774500D01*
X140084354Y-123774500D01*
X140023765Y-123758690D01*
X139978627Y-123715290D01*
X139960450Y-123655368D01*
X139973869Y-123594205D01*
X140015463Y-123547398D01*
X140028229Y-123538867D01*
X140028231Y-123538867D01*
X140094552Y-123494552D01*
X140138867Y-123428231D01*
X140150500Y-123369748D01*
X140150500Y-121830252D01*
X140138867Y-121771769D01*
X140125962Y-121752456D01*
X140094552Y-121705447D01*
X140028230Y-121661132D01*
X139969749Y-121649500D01*
X139969748Y-121649500D01*
X139674500Y-121649500D01*
X139612500Y-121632887D01*
X139567113Y-121587500D01*
X139550500Y-121525500D01*
X139550500Y-121496544D01*
X139553389Y-121482021D01*
X144074500Y-121482021D01*
X144113758Y-121641295D01*
X144189992Y-121786546D01*
X144189994Y-121786549D01*
X144298769Y-121909331D01*
X144433774Y-122002518D01*
X144587155Y-122060688D01*
X144709143Y-122075500D01*
X144790856Y-122075500D01*
X144790857Y-122075500D01*
X144912845Y-122060688D01*
X145066226Y-122002518D01*
X145201229Y-121909332D01*
X145310008Y-121786546D01*
X145386242Y-121641295D01*
X145425500Y-121482021D01*
X145425500Y-121317979D01*
X145386242Y-121158705D01*
X145310008Y-121013454D01*
X145310005Y-121013451D01*
X145310005Y-121013450D01*
X145201230Y-120890668D01*
X145066225Y-120797481D01*
X144912845Y-120739312D01*
X144790857Y-120724500D01*
X144709143Y-120724500D01*
X144648149Y-120731905D01*
X144587154Y-120739312D01*
X144433774Y-120797481D01*
X144298769Y-120890668D01*
X144189994Y-121013450D01*
X144189991Y-121013454D01*
X144189992Y-121013454D01*
X144113758Y-121158705D01*
X144074500Y-121317979D01*
X144074500Y-121482021D01*
X139553389Y-121482021D01*
X139559938Y-121449092D01*
X139586817Y-121408864D01*
X139613048Y-121382632D01*
X139632903Y-121366510D01*
X139640669Y-121361437D01*
X139658496Y-121338531D01*
X139668228Y-121327511D01*
X139668370Y-121327311D01*
X139668376Y-121327306D01*
X139679586Y-121311603D01*
X139682600Y-121307561D01*
X139712517Y-121269126D01*
X139712517Y-121269124D01*
X139717107Y-121263228D01*
X139719238Y-121256067D01*
X139719240Y-121256066D01*
X139733129Y-121209412D01*
X139734679Y-121204569D01*
X139750500Y-121158488D01*
X139750500Y-121158484D01*
X139752925Y-121151420D01*
X139752616Y-121143955D01*
X139752617Y-121143954D01*
X139750606Y-121095321D01*
X139750500Y-121090198D01*
X139750500Y-120706036D01*
X139758318Y-120662703D01*
X139780787Y-120624834D01*
X139825376Y-120573374D01*
X139825375Y-120573374D01*
X139825377Y-120573373D01*
X139885165Y-120442457D01*
X139905647Y-120300000D01*
X139885165Y-120157543D01*
X139878275Y-120142457D01*
X139834908Y-120047497D01*
X139825377Y-120026627D01*
X139825376Y-120026626D01*
X139825376Y-120026625D01*
X139731129Y-119917858D01*
X139731128Y-119917857D01*
X139610053Y-119840047D01*
X139471961Y-119799500D01*
X139328039Y-119799500D01*
X139189947Y-119840047D01*
X139068870Y-119917858D01*
X138974623Y-120026625D01*
X138914834Y-120157542D01*
X138894353Y-120300000D01*
X138914834Y-120442457D01*
X138974623Y-120573374D01*
X139019213Y-120624834D01*
X139041682Y-120662703D01*
X139049500Y-120706036D01*
X139049500Y-120903454D01*
X139040061Y-120950908D01*
X139013180Y-120991137D01*
X138986951Y-121017365D01*
X138967101Y-121033485D01*
X138959332Y-121038561D01*
X138941500Y-121061471D01*
X138931765Y-121072496D01*
X138920441Y-121088357D01*
X138917392Y-121092445D01*
X138900954Y-121113566D01*
X138882891Y-121136773D01*
X138866871Y-121190582D01*
X138865309Y-121195458D01*
X138847074Y-121248577D01*
X138849394Y-121304668D01*
X138849500Y-121309792D01*
X138849500Y-121525500D01*
X138832887Y-121587500D01*
X138787500Y-121632887D01*
X138725500Y-121649500D01*
X138430251Y-121649500D01*
X138371769Y-121661132D01*
X138305447Y-121705447D01*
X138261132Y-121771769D01*
X138249500Y-121830251D01*
X138249500Y-123369749D01*
X138261132Y-123428230D01*
X138301946Y-123489312D01*
X138305448Y-123494552D01*
X138371769Y-123538867D01*
X138384537Y-123547398D01*
X138426131Y-123594205D01*
X138439550Y-123655368D01*
X138421373Y-123715290D01*
X138376235Y-123758690D01*
X138315646Y-123774500D01*
X137286188Y-123774500D01*
X137238735Y-123765061D01*
X137198507Y-123738181D01*
X136461819Y-123001493D01*
X136434939Y-122961265D01*
X136425500Y-122913812D01*
X136425500Y-118851116D01*
X136442640Y-118788211D01*
X136489322Y-118742697D01*
X136552641Y-118727156D01*
X136615091Y-118745884D01*
X136659407Y-118793702D01*
X136702266Y-118875751D01*
X136824429Y-119025571D01*
X136974249Y-119147734D01*
X137145594Y-119237237D01*
X137331448Y-119290417D01*
X137444862Y-119300500D01*
X137444864Y-119300500D01*
X140943331Y-119300500D01*
X141010370Y-119320184D01*
X141056125Y-119372988D01*
X141066069Y-119442146D01*
X141037045Y-119505702D01*
X141003090Y-119527523D01*
X141004945Y-119530409D01*
X140989948Y-119540046D01*
X140989947Y-119540047D01*
X140912364Y-119589905D01*
X140868870Y-119617858D01*
X140774623Y-119726625D01*
X140714834Y-119857542D01*
X140694353Y-119999999D01*
X140714834Y-120142457D01*
X140774623Y-120273374D01*
X140797694Y-120299999D01*
X140868872Y-120382143D01*
X140989947Y-120459953D01*
X141128039Y-120500500D01*
X141271961Y-120500500D01*
X141410053Y-120459953D01*
X141531128Y-120382143D01*
X141625377Y-120273373D01*
X141685165Y-120142457D01*
X141701447Y-120029206D01*
X141713300Y-119991354D01*
X141736500Y-119959180D01*
X142345681Y-119349999D01*
X149176776Y-119349999D01*
X149176777Y-119350000D01*
X152323223Y-119350000D01*
X152323223Y-119349999D01*
X150750000Y-117776777D01*
X149176776Y-119349999D01*
X142345681Y-119349999D01*
X143287680Y-118408000D01*
X148000000Y-118408000D01*
X148010609Y-118527329D01*
X148066557Y-118722862D01*
X148160723Y-118903131D01*
X148289247Y-119060752D01*
X148446868Y-119189276D01*
X148627138Y-119283442D01*
X148822671Y-119339391D01*
X148832918Y-119340302D01*
X148832920Y-119340301D01*
X150573223Y-117600001D01*
X150573223Y-117600000D01*
X150926777Y-117600000D01*
X152667079Y-119340302D01*
X152677327Y-119339391D01*
X152872862Y-119283442D01*
X153053131Y-119189276D01*
X153210752Y-119060752D01*
X153339276Y-118903131D01*
X153433442Y-118722862D01*
X153489390Y-118527329D01*
X153500000Y-118408000D01*
X153500000Y-116792000D01*
X153489390Y-116672670D01*
X153433442Y-116477137D01*
X153339276Y-116296868D01*
X153210752Y-116139247D01*
X153053131Y-116010723D01*
X152872862Y-115916557D01*
X152677327Y-115860608D01*
X152667079Y-115859697D01*
X152667078Y-115859697D01*
X150926777Y-117600000D01*
X150573223Y-117600000D01*
X148832920Y-115859696D01*
X148822672Y-115860608D01*
X148627137Y-115916557D01*
X148446868Y-116010723D01*
X148289247Y-116139247D01*
X148160723Y-116296868D01*
X148066557Y-116477137D01*
X148010609Y-116672670D01*
X148000000Y-116792000D01*
X148000000Y-118408000D01*
X143287680Y-118408000D01*
X145213046Y-116482634D01*
X145232903Y-116466510D01*
X145240669Y-116461437D01*
X145258496Y-116438531D01*
X145268228Y-116427511D01*
X145268370Y-116427311D01*
X145268376Y-116427306D01*
X145279586Y-116411603D01*
X145282600Y-116407561D01*
X145312517Y-116369126D01*
X145312517Y-116369123D01*
X145317105Y-116363230D01*
X145319236Y-116356071D01*
X145319240Y-116356066D01*
X145333149Y-116309342D01*
X145334691Y-116304534D01*
X145350500Y-116258488D01*
X145350500Y-116258485D01*
X145352926Y-116251419D01*
X145352617Y-116243955D01*
X145352618Y-116243953D01*
X145350605Y-116195306D01*
X145350500Y-116190183D01*
X145350500Y-115006036D01*
X145358318Y-114962703D01*
X145380787Y-114924834D01*
X145425376Y-114873374D01*
X145425375Y-114873374D01*
X145425377Y-114873373D01*
X145485165Y-114742457D01*
X145505647Y-114600000D01*
X145485165Y-114457543D01*
X145425377Y-114326627D01*
X145425376Y-114326626D01*
X145425376Y-114326625D01*
X145331129Y-114217858D01*
X145331128Y-114217857D01*
X145210053Y-114140047D01*
X145071961Y-114099500D01*
X144928039Y-114099500D01*
X144789947Y-114140047D01*
X144668870Y-114217858D01*
X144574623Y-114326625D01*
X144514834Y-114457542D01*
X144494353Y-114600000D01*
X144514834Y-114742457D01*
X144574623Y-114873374D01*
X144619213Y-114924834D01*
X144641682Y-114962703D01*
X144649500Y-115006036D01*
X144649500Y-116003456D01*
X144640061Y-116050909D01*
X144613181Y-116091137D01*
X142157905Y-118546412D01*
X142106445Y-118577323D01*
X142046495Y-118580439D01*
X141992107Y-118555031D01*
X141956027Y-118507053D01*
X141946711Y-118447751D01*
X141950500Y-118405138D01*
X141950500Y-117262586D01*
X141964830Y-117204719D01*
X142004509Y-117160228D01*
X142060365Y-117139394D01*
X142119488Y-117147035D01*
X142168212Y-117181383D01*
X142168869Y-117182141D01*
X142168871Y-117182142D01*
X142168872Y-117182143D01*
X142289947Y-117259953D01*
X142428039Y-117300500D01*
X142571961Y-117300500D01*
X142710053Y-117259953D01*
X142831128Y-117182143D01*
X142925377Y-117073373D01*
X142985165Y-116942457D01*
X143005647Y-116800000D01*
X142985165Y-116657543D01*
X142925377Y-116526627D01*
X142925376Y-116526626D01*
X142925376Y-116526625D01*
X142831129Y-116417858D01*
X142831128Y-116417857D01*
X142710053Y-116340047D01*
X142571961Y-116299500D01*
X142511188Y-116299500D01*
X142463735Y-116290061D01*
X142423507Y-116263181D01*
X141461819Y-115301493D01*
X141434939Y-115261265D01*
X141425500Y-115213812D01*
X141425500Y-111801883D01*
X144908255Y-111801883D01*
X144928736Y-111944340D01*
X144988525Y-112075257D01*
X145082772Y-112184024D01*
X145082774Y-112184026D01*
X145203849Y-112261836D01*
X145341941Y-112302383D01*
X145402714Y-112302383D01*
X145450167Y-112311822D01*
X145490395Y-112338702D01*
X146767969Y-113616276D01*
X146775277Y-113624250D01*
X146799564Y-113653194D01*
X146820314Y-113665174D01*
X146832275Y-113672080D01*
X146841398Y-113677892D01*
X146851854Y-113685213D01*
X146872335Y-113699554D01*
X146872336Y-113699554D01*
X146873217Y-113700171D01*
X146897910Y-113710400D01*
X146898973Y-113710587D01*
X146898974Y-113710588D01*
X146936162Y-113717145D01*
X146946720Y-113719485D01*
X146983212Y-113729264D01*
X147020842Y-113725971D01*
X147031649Y-113725500D01*
X148663162Y-113725500D01*
X148714675Y-113736706D01*
X148756874Y-113768297D01*
X148768872Y-113782143D01*
X148889947Y-113859953D01*
X149028039Y-113900500D01*
X149171961Y-113900500D01*
X149310053Y-113859953D01*
X149431128Y-113782143D01*
X149525377Y-113673373D01*
X149585165Y-113542457D01*
X149605647Y-113400000D01*
X149585165Y-113257543D01*
X149525377Y-113126627D01*
X149525376Y-113126626D01*
X149525376Y-113126625D01*
X149431129Y-113017858D01*
X149431128Y-113017857D01*
X149310053Y-112940047D01*
X149171961Y-112899500D01*
X149028039Y-112899500D01*
X148889947Y-112940047D01*
X148768873Y-113017856D01*
X148768872Y-113017856D01*
X148768872Y-113017857D01*
X148756874Y-113031702D01*
X148714675Y-113063294D01*
X148663162Y-113074500D01*
X147198207Y-113074500D01*
X147150754Y-113065061D01*
X147110526Y-113038181D01*
X145956342Y-111883997D01*
X145933139Y-111851820D01*
X145921285Y-111813962D01*
X145919548Y-111801885D01*
X145919549Y-111801883D01*
X145899067Y-111659426D01*
X145839279Y-111528510D01*
X145839278Y-111528509D01*
X145839278Y-111528508D01*
X145745031Y-111419741D01*
X145745030Y-111419740D01*
X145623955Y-111341930D01*
X145485863Y-111301383D01*
X145341941Y-111301383D01*
X145203849Y-111341930D01*
X145082772Y-111419741D01*
X144988525Y-111528508D01*
X144928736Y-111659425D01*
X144908255Y-111801883D01*
X141425500Y-111801883D01*
X141425500Y-107486188D01*
X141434939Y-107438735D01*
X141461819Y-107398507D01*
X141972145Y-106888181D01*
X142516296Y-106344029D01*
X142524249Y-106336741D01*
X142553194Y-106312455D01*
X142572082Y-106279738D01*
X142577881Y-106270635D01*
X142599554Y-106239684D01*
X142599554Y-106239682D01*
X142600173Y-106238799D01*
X142610398Y-106214112D01*
X142610585Y-106213049D01*
X142610588Y-106213045D01*
X142617150Y-106175822D01*
X142619479Y-106165316D01*
X142629263Y-106128807D01*
X142625971Y-106091188D01*
X142625500Y-106080382D01*
X142625500Y-105700000D01*
X143594353Y-105700000D01*
X143614834Y-105842457D01*
X143674623Y-105973374D01*
X143731259Y-106038735D01*
X143768872Y-106082143D01*
X143889947Y-106159953D01*
X144028039Y-106200500D01*
X144171961Y-106200500D01*
X144310053Y-106159953D01*
X144431128Y-106082143D01*
X144525377Y-105973373D01*
X144585165Y-105842457D01*
X144605647Y-105700000D01*
X144605646Y-105699996D01*
X144607383Y-105687919D01*
X144619237Y-105650061D01*
X144642437Y-105617887D01*
X145116290Y-105144034D01*
X145124258Y-105136734D01*
X145153192Y-105112457D01*
X145153192Y-105112456D01*
X145153194Y-105112455D01*
X145172091Y-105079722D01*
X145177887Y-105070625D01*
X145199554Y-105039684D01*
X145199554Y-105039682D01*
X145200173Y-105038799D01*
X145210399Y-105014112D01*
X145210586Y-105013047D01*
X145210588Y-105013045D01*
X145217149Y-104975830D01*
X145219478Y-104965324D01*
X145229264Y-104928807D01*
X145225971Y-104891176D01*
X145225500Y-104880370D01*
X145225500Y-103819616D01*
X145225972Y-103808808D01*
X145229263Y-103771193D01*
X145219486Y-103734706D01*
X145217145Y-103724143D01*
X145210402Y-103685901D01*
X145200169Y-103661195D01*
X145177894Y-103629382D01*
X145172083Y-103620261D01*
X145153194Y-103587545D01*
X145124261Y-103563267D01*
X145116286Y-103555959D01*
X144742440Y-103182113D01*
X144719237Y-103149936D01*
X144707383Y-103112078D01*
X144685165Y-102957542D01*
X144625376Y-102826625D01*
X144531129Y-102717858D01*
X144531128Y-102717857D01*
X144410053Y-102640047D01*
X144271961Y-102599500D01*
X144128039Y-102599500D01*
X143989947Y-102640047D01*
X143868870Y-102717858D01*
X143774623Y-102826625D01*
X143714834Y-102957542D01*
X143694353Y-103100000D01*
X143714834Y-103242457D01*
X143774623Y-103373374D01*
X143847555Y-103457542D01*
X143868872Y-103482143D01*
X143989947Y-103559953D01*
X144128039Y-103600500D01*
X144188812Y-103600500D01*
X144236265Y-103609939D01*
X144276493Y-103636819D01*
X144538181Y-103898508D01*
X144565061Y-103938736D01*
X144574500Y-103986189D01*
X144574500Y-104713812D01*
X144565061Y-104761265D01*
X144538181Y-104801493D01*
X144176493Y-105163181D01*
X144136265Y-105190061D01*
X144088812Y-105199500D01*
X144028039Y-105199500D01*
X143889947Y-105240047D01*
X143768870Y-105317858D01*
X143674623Y-105426625D01*
X143614834Y-105557542D01*
X143594353Y-105700000D01*
X142625500Y-105700000D01*
X142625500Y-90786188D01*
X142634939Y-90738735D01*
X142661819Y-90698507D01*
X143146152Y-90214174D01*
X144859724Y-88500600D01*
X144907545Y-88470864D01*
X144963589Y-88465344D01*
X145016295Y-88485182D01*
X145029404Y-88499178D01*
X145030057Y-88498401D01*
X145046805Y-88512454D01*
X145046806Y-88512455D01*
X145069195Y-88531242D01*
X145075742Y-88536735D01*
X145083718Y-88544044D01*
X147238181Y-90698508D01*
X147265061Y-90738736D01*
X147274500Y-90786189D01*
X147274500Y-105313811D01*
X147265061Y-105361264D01*
X147238181Y-105401492D01*
X146983714Y-105655958D01*
X146975741Y-105663264D01*
X146946806Y-105687544D01*
X146927914Y-105720264D01*
X146922106Y-105729380D01*
X146899831Y-105761193D01*
X146889597Y-105785899D01*
X146882852Y-105824148D01*
X146880512Y-105834704D01*
X146870735Y-105871192D01*
X146874028Y-105908820D01*
X146874500Y-105919628D01*
X146874500Y-106565112D01*
X146866682Y-106608445D01*
X146844213Y-106646314D01*
X146774623Y-106726625D01*
X146714834Y-106857542D01*
X146694353Y-106999999D01*
X146714834Y-107142457D01*
X146774623Y-107273374D01*
X146855972Y-107367256D01*
X146868872Y-107382143D01*
X146989947Y-107459953D01*
X147128039Y-107500500D01*
X147271961Y-107500500D01*
X147410053Y-107459953D01*
X147531128Y-107382143D01*
X147625377Y-107273373D01*
X147685165Y-107142457D01*
X147705647Y-107000000D01*
X147685165Y-106857543D01*
X147654296Y-106789951D01*
X147625376Y-106726625D01*
X147555787Y-106646314D01*
X147533318Y-106608445D01*
X147525500Y-106565112D01*
X147525500Y-106086188D01*
X147534939Y-106038735D01*
X147561819Y-105998507D01*
X147672145Y-105888181D01*
X147816296Y-105744029D01*
X147824250Y-105736740D01*
X147853194Y-105712455D01*
X147872102Y-105679703D01*
X147877878Y-105670638D01*
X147899553Y-105639684D01*
X147899553Y-105639681D01*
X147900171Y-105638800D01*
X147910400Y-105614105D01*
X147910586Y-105613047D01*
X147910588Y-105613045D01*
X147917150Y-105575824D01*
X147919480Y-105565312D01*
X147929263Y-105528807D01*
X147925971Y-105491188D01*
X147925500Y-105480382D01*
X147925500Y-90619619D01*
X147925972Y-90608812D01*
X147929263Y-90571191D01*
X147919486Y-90534704D01*
X147917144Y-90524140D01*
X147910400Y-90485891D01*
X147900173Y-90461201D01*
X147899554Y-90460317D01*
X147899554Y-90460316D01*
X147877878Y-90429360D01*
X147872085Y-90420266D01*
X147853194Y-90387545D01*
X147824261Y-90363267D01*
X147816286Y-90355959D01*
X145661819Y-88201493D01*
X145634939Y-88161265D01*
X145625500Y-88113812D01*
X145625500Y-87477311D01*
X145638616Y-87421806D01*
X145675190Y-87378044D01*
X145727483Y-87355281D01*
X145784435Y-87358334D01*
X145789945Y-87359952D01*
X145789947Y-87359953D01*
X145928039Y-87400500D01*
X145988812Y-87400500D01*
X146036265Y-87409939D01*
X146076493Y-87436819D01*
X148236267Y-89596594D01*
X148263147Y-89636822D01*
X148272586Y-89684275D01*
X148272586Y-108067322D01*
X148264768Y-108110656D01*
X148242300Y-108148522D01*
X148184686Y-108215012D01*
X148174622Y-108226628D01*
X148114834Y-108357542D01*
X148094353Y-108500000D01*
X148114834Y-108642457D01*
X148174623Y-108773374D01*
X148212648Y-108817257D01*
X148268872Y-108882143D01*
X148389947Y-108959953D01*
X148528039Y-109000500D01*
X148671961Y-109000500D01*
X148810053Y-108959953D01*
X148931128Y-108882143D01*
X149025377Y-108773373D01*
X149085165Y-108642457D01*
X149105647Y-108500000D01*
X149085165Y-108357543D01*
X149025377Y-108226627D01*
X148953871Y-108144104D01*
X148931404Y-108106237D01*
X148923586Y-108062904D01*
X148923586Y-104031525D01*
X148937916Y-103973658D01*
X148977595Y-103929166D01*
X149033451Y-103908333D01*
X149092575Y-103915974D01*
X149141299Y-103950323D01*
X149168869Y-103982141D01*
X149168871Y-103982142D01*
X149168872Y-103982143D01*
X149289947Y-104059953D01*
X149428039Y-104100500D01*
X149571961Y-104100500D01*
X149710053Y-104059953D01*
X149831128Y-103982143D01*
X149925377Y-103873373D01*
X149985165Y-103742457D01*
X150005647Y-103600000D01*
X149985165Y-103457543D01*
X149946725Y-103373373D01*
X149925376Y-103326625D01*
X149855787Y-103246314D01*
X149833318Y-103208445D01*
X149825500Y-103165112D01*
X149825500Y-89195732D01*
X149825972Y-89184925D01*
X149829263Y-89147304D01*
X149819486Y-89110817D01*
X149817144Y-89100253D01*
X149810400Y-89062004D01*
X149800173Y-89037314D01*
X149799554Y-89036430D01*
X149799554Y-89036429D01*
X149777878Y-89005473D01*
X149772085Y-88996379D01*
X149753194Y-88963658D01*
X149724261Y-88939380D01*
X149716286Y-88932072D01*
X149540027Y-88755813D01*
X149516824Y-88723636D01*
X149504970Y-88685778D01*
X149502791Y-88670623D01*
X149486880Y-88559953D01*
X149482752Y-88531242D01*
X149428772Y-88413045D01*
X149422964Y-88400327D01*
X149422963Y-88400326D01*
X149422963Y-88400325D01*
X149328716Y-88291558D01*
X149328715Y-88291557D01*
X149207640Y-88213747D01*
X149069548Y-88173200D01*
X148925626Y-88173200D01*
X148787534Y-88213747D01*
X148666457Y-88291558D01*
X148572210Y-88400325D01*
X148512421Y-88531242D01*
X148494773Y-88653993D01*
X148467182Y-88715863D01*
X148411194Y-88754000D01*
X148343518Y-88757022D01*
X148284354Y-88724027D01*
X146542440Y-86982113D01*
X146519237Y-86949936D01*
X146507383Y-86912078D01*
X146503447Y-86884704D01*
X146485165Y-86757543D01*
X146472351Y-86729485D01*
X146425376Y-86626625D01*
X146331129Y-86517858D01*
X146331128Y-86517857D01*
X146210053Y-86440047D01*
X146071961Y-86399500D01*
X145928039Y-86399500D01*
X145789947Y-86440047D01*
X145789945Y-86440047D01*
X145784435Y-86441666D01*
X145727483Y-86444719D01*
X145675190Y-86421956D01*
X145638616Y-86378194D01*
X145625500Y-86322689D01*
X145625500Y-86086188D01*
X145634939Y-86038735D01*
X145661819Y-85998507D01*
X145886953Y-85773373D01*
X146616290Y-85044034D01*
X146624258Y-85036734D01*
X146653192Y-85012457D01*
X146653192Y-85012456D01*
X146653194Y-85012455D01*
X146672091Y-84979722D01*
X146677887Y-84970625D01*
X146699554Y-84939684D01*
X146699554Y-84939682D01*
X146700173Y-84938799D01*
X146710399Y-84914112D01*
X146710586Y-84913047D01*
X146710588Y-84913045D01*
X146717149Y-84875830D01*
X146719478Y-84865324D01*
X146729264Y-84828807D01*
X146725971Y-84791180D01*
X146725500Y-84780373D01*
X146725500Y-84750000D01*
X147494353Y-84750000D01*
X147514834Y-84892457D01*
X147574623Y-85023374D01*
X147656493Y-85117857D01*
X147668872Y-85132143D01*
X147789947Y-85209953D01*
X147928039Y-85250500D01*
X147988812Y-85250500D01*
X148036265Y-85259939D01*
X148076493Y-85286819D01*
X151038181Y-88248507D01*
X151065061Y-88288735D01*
X151074500Y-88336188D01*
X151074500Y-113513812D01*
X151065061Y-113561265D01*
X151038181Y-113601493D01*
X149776493Y-114863181D01*
X149736265Y-114890061D01*
X149688812Y-114899500D01*
X149628039Y-114899500D01*
X149489947Y-114940047D01*
X149368870Y-115017858D01*
X149274623Y-115126625D01*
X149214834Y-115257542D01*
X149194353Y-115400000D01*
X149214834Y-115542457D01*
X149275132Y-115674488D01*
X149286022Y-115734846D01*
X149266654Y-115793039D01*
X149221765Y-115834832D01*
X149178484Y-115845878D01*
X149176776Y-115850000D01*
X150750000Y-117423223D01*
X152323223Y-115850000D01*
X150237662Y-115850000D01*
X150178235Y-115834832D01*
X150133346Y-115793039D01*
X150113978Y-115734846D01*
X150124868Y-115674488D01*
X150185165Y-115542457D01*
X150195507Y-115470525D01*
X150205647Y-115400000D01*
X150205646Y-115399996D01*
X150207383Y-115387919D01*
X150219237Y-115350061D01*
X150242437Y-115317887D01*
X151616290Y-113944034D01*
X151624258Y-113936734D01*
X151653192Y-113912457D01*
X151653192Y-113912456D01*
X151653194Y-113912455D01*
X151672091Y-113879722D01*
X151677887Y-113870625D01*
X151699554Y-113839684D01*
X151699554Y-113839682D01*
X151700173Y-113838799D01*
X151710399Y-113814112D01*
X151710586Y-113813047D01*
X151710588Y-113813045D01*
X151717149Y-113775830D01*
X151719478Y-113765324D01*
X151729264Y-113728807D01*
X151725971Y-113691180D01*
X151725500Y-113680373D01*
X151725500Y-88169619D01*
X151725972Y-88158812D01*
X151729263Y-88121191D01*
X151719486Y-88084704D01*
X151717144Y-88074140D01*
X151710400Y-88035891D01*
X151700171Y-88011198D01*
X151699554Y-88010317D01*
X151699554Y-88010316D01*
X151677892Y-87979379D01*
X151672080Y-87970256D01*
X151653194Y-87937544D01*
X151624255Y-87913262D01*
X151616280Y-87905954D01*
X148542440Y-84832114D01*
X148519237Y-84799937D01*
X148507383Y-84762079D01*
X148505646Y-84750002D01*
X148505647Y-84750000D01*
X148485165Y-84607543D01*
X148481038Y-84598507D01*
X148425376Y-84476625D01*
X148331129Y-84367858D01*
X148331128Y-84367857D01*
X148210053Y-84290047D01*
X148071961Y-84249500D01*
X147928039Y-84249500D01*
X147789947Y-84290047D01*
X147668870Y-84367858D01*
X147574623Y-84476625D01*
X147514834Y-84607542D01*
X147494353Y-84750000D01*
X146725500Y-84750000D01*
X146725500Y-84019627D01*
X146725972Y-84008819D01*
X146729264Y-83971192D01*
X146719487Y-83934706D01*
X146717145Y-83924143D01*
X146710400Y-83885891D01*
X146700171Y-83861198D01*
X146699554Y-83860317D01*
X146699554Y-83860316D01*
X146677892Y-83829379D01*
X146672080Y-83820256D01*
X146653194Y-83787544D01*
X146624255Y-83763262D01*
X146616280Y-83755954D01*
X145644043Y-82783717D01*
X145636734Y-82775741D01*
X145612455Y-82746806D01*
X145612454Y-82746805D01*
X145579736Y-82727915D01*
X145570627Y-82722112D01*
X145539684Y-82700446D01*
X145538803Y-82699829D01*
X145514107Y-82689599D01*
X145475852Y-82682853D01*
X145465296Y-82680512D01*
X145428807Y-82670735D01*
X145391180Y-82674028D01*
X145380372Y-82674500D01*
X142286189Y-82674500D01*
X142238736Y-82665061D01*
X142198508Y-82638181D01*
X141942440Y-82382113D01*
X141919237Y-82349936D01*
X141907383Y-82312078D01*
X141885165Y-82157542D01*
X141825376Y-82026625D01*
X141731129Y-81917858D01*
X141731128Y-81917857D01*
X141610053Y-81840047D01*
X141471961Y-81799500D01*
X141328039Y-81799500D01*
X141189947Y-81840047D01*
X141068870Y-81917858D01*
X140974623Y-82026625D01*
X140914834Y-82157542D01*
X140894353Y-82300000D01*
X140914834Y-82442457D01*
X140974623Y-82573374D01*
X141068870Y-82682141D01*
X141068872Y-82682143D01*
X141189947Y-82759953D01*
X141328039Y-82800500D01*
X141388812Y-82800500D01*
X141436265Y-82809939D01*
X141476493Y-82836819D01*
X141855955Y-83216282D01*
X141863263Y-83224256D01*
X141887545Y-83253194D01*
X141901003Y-83260963D01*
X141920261Y-83272083D01*
X141929382Y-83277894D01*
X141961195Y-83300169D01*
X141985901Y-83310402D01*
X141986954Y-83310587D01*
X141986955Y-83310588D01*
X142005240Y-83313812D01*
X142024143Y-83317145D01*
X142034701Y-83319484D01*
X142071193Y-83329263D01*
X142071193Y-83329262D01*
X142071194Y-83329263D01*
X142092086Y-83327435D01*
X142108811Y-83325971D01*
X142119618Y-83325500D01*
X145213812Y-83325500D01*
X145261265Y-83334939D01*
X145301493Y-83361819D01*
X146038181Y-84098507D01*
X146065061Y-84138735D01*
X146074500Y-84186188D01*
X146074500Y-84613812D01*
X146065061Y-84661265D01*
X146038183Y-84701490D01*
X145989675Y-84749999D01*
X145960230Y-84779444D01*
X145901065Y-84812439D01*
X145833389Y-84809416D01*
X145777401Y-84771279D01*
X145749811Y-84709409D01*
X145735165Y-84607542D01*
X145675376Y-84476625D01*
X145581129Y-84367858D01*
X145581128Y-84367857D01*
X145460053Y-84290047D01*
X145321961Y-84249500D01*
X145178039Y-84249500D01*
X145039947Y-84290047D01*
X144918870Y-84367858D01*
X144824623Y-84476625D01*
X144764834Y-84607542D01*
X144742616Y-84762079D01*
X144730762Y-84799936D01*
X144707559Y-84832113D01*
X144583714Y-84955958D01*
X144575741Y-84963264D01*
X144546806Y-84987544D01*
X144527914Y-85020264D01*
X144522106Y-85029380D01*
X144499831Y-85061193D01*
X144489597Y-85085899D01*
X144482852Y-85124148D01*
X144480512Y-85134704D01*
X144470735Y-85171192D01*
X144474028Y-85208820D01*
X144474500Y-85219628D01*
X144474500Y-86893326D01*
X144461384Y-86948830D01*
X144424811Y-86992593D01*
X144372517Y-87015356D01*
X144315566Y-87012303D01*
X144271962Y-86999500D01*
X144271961Y-86999500D01*
X144128039Y-86999500D01*
X143989947Y-87040047D01*
X143868870Y-87117858D01*
X143774623Y-87226625D01*
X143714834Y-87357542D01*
X143694353Y-87500000D01*
X143714834Y-87642457D01*
X143774623Y-87773374D01*
X143788005Y-87788818D01*
X143815457Y-87843662D01*
X143813268Y-87904954D01*
X143781972Y-87957700D01*
X141737181Y-90002493D01*
X141687818Y-90032743D01*
X141630102Y-90037285D01*
X141576615Y-90015130D01*
X141539015Y-89971107D01*
X141525500Y-89914812D01*
X141525500Y-87136188D01*
X141534939Y-87088735D01*
X141561819Y-87048507D01*
X143323507Y-85286819D01*
X143363735Y-85259939D01*
X143411188Y-85250500D01*
X143471961Y-85250500D01*
X143610053Y-85209953D01*
X143731128Y-85132143D01*
X143825377Y-85023373D01*
X143885165Y-84892457D01*
X143905647Y-84750000D01*
X143885165Y-84607543D01*
X143881038Y-84598507D01*
X143825376Y-84476625D01*
X143731129Y-84367858D01*
X143731128Y-84367857D01*
X143610053Y-84290047D01*
X143471961Y-84249500D01*
X143328039Y-84249500D01*
X143189947Y-84290047D01*
X143068870Y-84367858D01*
X142974623Y-84476625D01*
X142914834Y-84607542D01*
X142892616Y-84762079D01*
X142880762Y-84799936D01*
X142857559Y-84832113D01*
X140983714Y-86705958D01*
X140975741Y-86713264D01*
X140946806Y-86737544D01*
X140927914Y-86770264D01*
X140922106Y-86779380D01*
X140899831Y-86811193D01*
X140889597Y-86835899D01*
X140882852Y-86874148D01*
X140880512Y-86884704D01*
X140870735Y-86921192D01*
X140874028Y-86958820D01*
X140874500Y-86969628D01*
X140874500Y-92102111D01*
X140856687Y-92166144D01*
X140808367Y-92211781D01*
X140743421Y-92225909D01*
X140680509Y-92204470D01*
X140637706Y-92153623D01*
X140625376Y-92126625D01*
X140531129Y-92017858D01*
X140531128Y-92017857D01*
X140410053Y-91940047D01*
X140271961Y-91899500D01*
X140128039Y-91899500D01*
X139989947Y-91940047D01*
X139868869Y-92017858D01*
X139860851Y-92027112D01*
X139813685Y-92060840D01*
X139792045Y-92064083D01*
X139792312Y-92065077D01*
X139734704Y-92080512D01*
X139724148Y-92082852D01*
X139685899Y-92089597D01*
X139661193Y-92099831D01*
X139629380Y-92122106D01*
X139620264Y-92127914D01*
X139587545Y-92146805D01*
X139563262Y-92175744D01*
X139555956Y-92183716D01*
X137837181Y-93902492D01*
X137787818Y-93932742D01*
X137730102Y-93937284D01*
X137676615Y-93915129D01*
X137639015Y-93871106D01*
X137625500Y-93814811D01*
X137625500Y-93534888D01*
X137633318Y-93491555D01*
X137655787Y-93453686D01*
X137725376Y-93373374D01*
X137725375Y-93373374D01*
X137725377Y-93373373D01*
X137785165Y-93242457D01*
X137805647Y-93100000D01*
X137785165Y-92957543D01*
X137725377Y-92826627D01*
X137725376Y-92826626D01*
X137725376Y-92826625D01*
X137655787Y-92746314D01*
X137633318Y-92708445D01*
X137625500Y-92665112D01*
X137625500Y-92519627D01*
X137625972Y-92508819D01*
X137629264Y-92471193D01*
X137619487Y-92434706D01*
X137617145Y-92424143D01*
X137610400Y-92385891D01*
X137600171Y-92361198D01*
X137599554Y-92360317D01*
X137599554Y-92360316D01*
X137577892Y-92329379D01*
X137572080Y-92320256D01*
X137553194Y-92287544D01*
X137524255Y-92263262D01*
X137516280Y-92255954D01*
X137461819Y-92201493D01*
X137434939Y-92161265D01*
X137425500Y-92113812D01*
X137425500Y-90977311D01*
X137438616Y-90921806D01*
X137475190Y-90878044D01*
X137527483Y-90855281D01*
X137584435Y-90858334D01*
X137589945Y-90859952D01*
X137589947Y-90859953D01*
X137728039Y-90900500D01*
X137871961Y-90900500D01*
X138010053Y-90859953D01*
X138131128Y-90782143D01*
X138225377Y-90673373D01*
X138285165Y-90542457D01*
X138305647Y-90400000D01*
X138305646Y-90399996D01*
X138307383Y-90387919D01*
X138319237Y-90350061D01*
X138342437Y-90317887D01*
X139916290Y-88744034D01*
X139924258Y-88736734D01*
X139953192Y-88712457D01*
X139953192Y-88712456D01*
X139953194Y-88712455D01*
X139972091Y-88679722D01*
X139977890Y-88670623D01*
X139999554Y-88639684D01*
X139999554Y-88639682D01*
X140000173Y-88638799D01*
X140010399Y-88614112D01*
X140010586Y-88613047D01*
X140010588Y-88613045D01*
X140017149Y-88575830D01*
X140019478Y-88565324D01*
X140029264Y-88528807D01*
X140025971Y-88491176D01*
X140025500Y-88480370D01*
X140025500Y-82186188D01*
X140034939Y-82138735D01*
X140061819Y-82098507D01*
X140598507Y-81561819D01*
X140638735Y-81534939D01*
X140686188Y-81525500D01*
X148863162Y-81525500D01*
X148914675Y-81536706D01*
X148956874Y-81568297D01*
X148968872Y-81582143D01*
X149089947Y-81659953D01*
X149228039Y-81700500D01*
X149371961Y-81700500D01*
X149510053Y-81659953D01*
X149631128Y-81582143D01*
X149725377Y-81473373D01*
X149785165Y-81342457D01*
X149805647Y-81200000D01*
X149785165Y-81057543D01*
X149725377Y-80926627D01*
X149725376Y-80926626D01*
X149725376Y-80926625D01*
X149631129Y-80817858D01*
X149631128Y-80817857D01*
X149510053Y-80740047D01*
X149371961Y-80699500D01*
X149305690Y-80699500D01*
X149238651Y-80679816D01*
X149192896Y-80627012D01*
X149182952Y-80557854D01*
X149192529Y-80491237D01*
X149205647Y-80400000D01*
X149185165Y-80257543D01*
X149125377Y-80126627D01*
X149125376Y-80126626D01*
X149125376Y-80126625D01*
X149031129Y-80017858D01*
X149031128Y-80017857D01*
X148910053Y-79940047D01*
X148771961Y-79899500D01*
X148628039Y-79899500D01*
X148489947Y-79940047D01*
X148368873Y-80017856D01*
X148368872Y-80017856D01*
X148368872Y-80017857D01*
X148356874Y-80031702D01*
X148314675Y-80063294D01*
X148263162Y-80074500D01*
X137919628Y-80074500D01*
X137908820Y-80074028D01*
X137871192Y-80070735D01*
X137834704Y-80080512D01*
X137824148Y-80082852D01*
X137785899Y-80089597D01*
X137761193Y-80099831D01*
X137729380Y-80122106D01*
X137720264Y-80127914D01*
X137687545Y-80146805D01*
X137663262Y-80175744D01*
X137655956Y-80183716D01*
X136683714Y-81155958D01*
X136675741Y-81163264D01*
X136646806Y-81187544D01*
X136627914Y-81220264D01*
X136622106Y-81229380D01*
X136599831Y-81261193D01*
X136589597Y-81285899D01*
X136582852Y-81324148D01*
X136580512Y-81334704D01*
X136570735Y-81371192D01*
X136574028Y-81408820D01*
X136574500Y-81419628D01*
X136574500Y-86080372D01*
X136574028Y-86091180D01*
X136570735Y-86128807D01*
X136580512Y-86165296D01*
X136582853Y-86175852D01*
X136589599Y-86214107D01*
X136599829Y-86238803D01*
X136600446Y-86239684D01*
X136622112Y-86270627D01*
X136627915Y-86279736D01*
X136646806Y-86312455D01*
X136659002Y-86322689D01*
X136675742Y-86336735D01*
X136683718Y-86344044D01*
X137238181Y-86898508D01*
X137265061Y-86938736D01*
X137274500Y-86986189D01*
X137274500Y-87665112D01*
X137266682Y-87708445D01*
X137244213Y-87746314D01*
X137174623Y-87826625D01*
X137114834Y-87957542D01*
X137094353Y-88100000D01*
X137114834Y-88242457D01*
X137174623Y-88373374D01*
X137267346Y-88480382D01*
X137268872Y-88482143D01*
X137389947Y-88559953D01*
X137490723Y-88589543D01*
X137545021Y-88622417D01*
X137575937Y-88677854D01*
X137575371Y-88741325D01*
X137543470Y-88796201D01*
X136883714Y-89455958D01*
X136875741Y-89463264D01*
X136846806Y-89487544D01*
X136827914Y-89520264D01*
X136822106Y-89529380D01*
X136799831Y-89561193D01*
X136789597Y-89585899D01*
X136782852Y-89624148D01*
X136780512Y-89634704D01*
X136770735Y-89671192D01*
X136774028Y-89708820D01*
X136774500Y-89719628D01*
X136774500Y-92280372D01*
X136774028Y-92291180D01*
X136770735Y-92328807D01*
X136780512Y-92365296D01*
X136782853Y-92375852D01*
X136789599Y-92414107D01*
X136799829Y-92438803D01*
X136800446Y-92439684D01*
X136822112Y-92470627D01*
X136827915Y-92479736D01*
X136846806Y-92512455D01*
X136875742Y-92536735D01*
X136883718Y-92544044D01*
X136928396Y-92588722D01*
X136959692Y-92641468D01*
X136961881Y-92702760D01*
X136934429Y-92757604D01*
X136874623Y-92826625D01*
X136814834Y-92957542D01*
X136794353Y-93100000D01*
X136814834Y-93242457D01*
X136874623Y-93373374D01*
X136944213Y-93453686D01*
X136966682Y-93491555D01*
X136974500Y-93534888D01*
X136974500Y-93713811D01*
X136965061Y-93761264D01*
X136938181Y-93801492D01*
X135883714Y-94855958D01*
X135875741Y-94863264D01*
X135846806Y-94887544D01*
X135827914Y-94920264D01*
X135822106Y-94929380D01*
X135799831Y-94961193D01*
X135789597Y-94985899D01*
X135782852Y-95024148D01*
X135780512Y-95034704D01*
X135770735Y-95071192D01*
X135774028Y-95108820D01*
X135774500Y-95119628D01*
X135774500Y-123080372D01*
X135774028Y-123091180D01*
X135770735Y-123128807D01*
X135075500Y-123128807D01*
X135075500Y-76504875D01*
X135075882Y-76495146D01*
X135092272Y-76286886D01*
X135095314Y-76267675D01*
X135142944Y-76069283D01*
X135148950Y-76050798D01*
X135227028Y-75862302D01*
X135235853Y-75844980D01*
X135342467Y-75671002D01*
X135353882Y-75655291D01*
X135486404Y-75500127D01*
X135500127Y-75486404D01*
X135655291Y-75353882D01*
X135671002Y-75342467D01*
X135844980Y-75235853D01*
X135862302Y-75227028D01*
X136050798Y-75148950D01*
X136069283Y-75142944D01*
X136267675Y-75095314D01*
X136286880Y-75092272D01*
X136495146Y-75075881D01*
X136504875Y-75075500D01*
X136524531Y-75075500D01*
X138276000Y-75075500D01*
X138338000Y-75092113D01*
G37*
%TD.AperFunction*%
%TD*%
M02*
