%TF.GenerationSoftware,KiCad,Pcbnew,7.0.1*%
%TF.CreationDate,2023-04-07T09:45:08+02:00*%
%TF.ProjectId,OBJEX-DoorSensor_v1.2,4f424a45-582d-4446-9f6f-7253656e736f,1.2*%
%TF.SameCoordinates,Original*%
%TF.FileFunction,Legend,Top*%
%TF.FilePolarity,Positive*%
%FSLAX46Y46*%
G04 Gerber Fmt 4.6, Leading zero omitted, Abs format (unit mm)*
G04 Created by KiCad (PCBNEW 7.0.1) date 2023-04-07 09:45:08*
%MOMM*%
%LPD*%
G01*
G04 APERTURE LIST*
%ADD10C,0.150000*%
%ADD11C,0.120000*%
%ADD12C,0.100000*%
%ADD13C,0.152400*%
%ADD14C,0.200000*%
%ADD15C,0.127000*%
%ADD16C,0.010000*%
G04 APERTURE END LIST*
D10*
%TO.C,R5*%
X153733333Y-111262619D02*
X153400000Y-110786428D01*
X153161905Y-111262619D02*
X153161905Y-110262619D01*
X153161905Y-110262619D02*
X153542857Y-110262619D01*
X153542857Y-110262619D02*
X153638095Y-110310238D01*
X153638095Y-110310238D02*
X153685714Y-110357857D01*
X153685714Y-110357857D02*
X153733333Y-110453095D01*
X153733333Y-110453095D02*
X153733333Y-110595952D01*
X153733333Y-110595952D02*
X153685714Y-110691190D01*
X153685714Y-110691190D02*
X153638095Y-110738809D01*
X153638095Y-110738809D02*
X153542857Y-110786428D01*
X153542857Y-110786428D02*
X153161905Y-110786428D01*
X154638095Y-110262619D02*
X154161905Y-110262619D01*
X154161905Y-110262619D02*
X154114286Y-110738809D01*
X154114286Y-110738809D02*
X154161905Y-110691190D01*
X154161905Y-110691190D02*
X154257143Y-110643571D01*
X154257143Y-110643571D02*
X154495238Y-110643571D01*
X154495238Y-110643571D02*
X154590476Y-110691190D01*
X154590476Y-110691190D02*
X154638095Y-110738809D01*
X154638095Y-110738809D02*
X154685714Y-110834047D01*
X154685714Y-110834047D02*
X154685714Y-111072142D01*
X154685714Y-111072142D02*
X154638095Y-111167380D01*
X154638095Y-111167380D02*
X154590476Y-111215000D01*
X154590476Y-111215000D02*
X154495238Y-111262619D01*
X154495238Y-111262619D02*
X154257143Y-111262619D01*
X154257143Y-111262619D02*
X154161905Y-111215000D01*
X154161905Y-111215000D02*
X154114286Y-111167380D01*
%TO.C,JP4*%
X137912619Y-101333333D02*
X138626904Y-101333333D01*
X138626904Y-101333333D02*
X138769761Y-101380952D01*
X138769761Y-101380952D02*
X138865000Y-101476190D01*
X138865000Y-101476190D02*
X138912619Y-101619047D01*
X138912619Y-101619047D02*
X138912619Y-101714285D01*
X138912619Y-100857142D02*
X137912619Y-100857142D01*
X137912619Y-100857142D02*
X137912619Y-100476190D01*
X137912619Y-100476190D02*
X137960238Y-100380952D01*
X137960238Y-100380952D02*
X138007857Y-100333333D01*
X138007857Y-100333333D02*
X138103095Y-100285714D01*
X138103095Y-100285714D02*
X138245952Y-100285714D01*
X138245952Y-100285714D02*
X138341190Y-100333333D01*
X138341190Y-100333333D02*
X138388809Y-100380952D01*
X138388809Y-100380952D02*
X138436428Y-100476190D01*
X138436428Y-100476190D02*
X138436428Y-100857142D01*
X138245952Y-99428571D02*
X138912619Y-99428571D01*
X137865000Y-99666666D02*
X138579285Y-99904761D01*
X138579285Y-99904761D02*
X138579285Y-99285714D01*
%TO.C,JP3*%
X147666666Y-107262619D02*
X147666666Y-107976904D01*
X147666666Y-107976904D02*
X147619047Y-108119761D01*
X147619047Y-108119761D02*
X147523809Y-108215000D01*
X147523809Y-108215000D02*
X147380952Y-108262619D01*
X147380952Y-108262619D02*
X147285714Y-108262619D01*
X148142857Y-108262619D02*
X148142857Y-107262619D01*
X148142857Y-107262619D02*
X148523809Y-107262619D01*
X148523809Y-107262619D02*
X148619047Y-107310238D01*
X148619047Y-107310238D02*
X148666666Y-107357857D01*
X148666666Y-107357857D02*
X148714285Y-107453095D01*
X148714285Y-107453095D02*
X148714285Y-107595952D01*
X148714285Y-107595952D02*
X148666666Y-107691190D01*
X148666666Y-107691190D02*
X148619047Y-107738809D01*
X148619047Y-107738809D02*
X148523809Y-107786428D01*
X148523809Y-107786428D02*
X148142857Y-107786428D01*
X149047619Y-107262619D02*
X149666666Y-107262619D01*
X149666666Y-107262619D02*
X149333333Y-107643571D01*
X149333333Y-107643571D02*
X149476190Y-107643571D01*
X149476190Y-107643571D02*
X149571428Y-107691190D01*
X149571428Y-107691190D02*
X149619047Y-107738809D01*
X149619047Y-107738809D02*
X149666666Y-107834047D01*
X149666666Y-107834047D02*
X149666666Y-108072142D01*
X149666666Y-108072142D02*
X149619047Y-108167380D01*
X149619047Y-108167380D02*
X149571428Y-108215000D01*
X149571428Y-108215000D02*
X149476190Y-108262619D01*
X149476190Y-108262619D02*
X149190476Y-108262619D01*
X149190476Y-108262619D02*
X149095238Y-108215000D01*
X149095238Y-108215000D02*
X149047619Y-108167380D01*
%TO.C,JP1*%
X135966666Y-119562619D02*
X135966666Y-120276904D01*
X135966666Y-120276904D02*
X135919047Y-120419761D01*
X135919047Y-120419761D02*
X135823809Y-120515000D01*
X135823809Y-120515000D02*
X135680952Y-120562619D01*
X135680952Y-120562619D02*
X135585714Y-120562619D01*
X136442857Y-120562619D02*
X136442857Y-119562619D01*
X136442857Y-119562619D02*
X136823809Y-119562619D01*
X136823809Y-119562619D02*
X136919047Y-119610238D01*
X136919047Y-119610238D02*
X136966666Y-119657857D01*
X136966666Y-119657857D02*
X137014285Y-119753095D01*
X137014285Y-119753095D02*
X137014285Y-119895952D01*
X137014285Y-119895952D02*
X136966666Y-119991190D01*
X136966666Y-119991190D02*
X136919047Y-120038809D01*
X136919047Y-120038809D02*
X136823809Y-120086428D01*
X136823809Y-120086428D02*
X136442857Y-120086428D01*
X137966666Y-120562619D02*
X137395238Y-120562619D01*
X137680952Y-120562619D02*
X137680952Y-119562619D01*
X137680952Y-119562619D02*
X137585714Y-119705476D01*
X137585714Y-119705476D02*
X137490476Y-119800714D01*
X137490476Y-119800714D02*
X137395238Y-119848333D01*
%TO.C,R6*%
X153733333Y-114762619D02*
X153400000Y-114286428D01*
X153161905Y-114762619D02*
X153161905Y-113762619D01*
X153161905Y-113762619D02*
X153542857Y-113762619D01*
X153542857Y-113762619D02*
X153638095Y-113810238D01*
X153638095Y-113810238D02*
X153685714Y-113857857D01*
X153685714Y-113857857D02*
X153733333Y-113953095D01*
X153733333Y-113953095D02*
X153733333Y-114095952D01*
X153733333Y-114095952D02*
X153685714Y-114191190D01*
X153685714Y-114191190D02*
X153638095Y-114238809D01*
X153638095Y-114238809D02*
X153542857Y-114286428D01*
X153542857Y-114286428D02*
X153161905Y-114286428D01*
X154590476Y-113762619D02*
X154400000Y-113762619D01*
X154400000Y-113762619D02*
X154304762Y-113810238D01*
X154304762Y-113810238D02*
X154257143Y-113857857D01*
X154257143Y-113857857D02*
X154161905Y-114000714D01*
X154161905Y-114000714D02*
X154114286Y-114191190D01*
X154114286Y-114191190D02*
X154114286Y-114572142D01*
X154114286Y-114572142D02*
X154161905Y-114667380D01*
X154161905Y-114667380D02*
X154209524Y-114715000D01*
X154209524Y-114715000D02*
X154304762Y-114762619D01*
X154304762Y-114762619D02*
X154495238Y-114762619D01*
X154495238Y-114762619D02*
X154590476Y-114715000D01*
X154590476Y-114715000D02*
X154638095Y-114667380D01*
X154638095Y-114667380D02*
X154685714Y-114572142D01*
X154685714Y-114572142D02*
X154685714Y-114334047D01*
X154685714Y-114334047D02*
X154638095Y-114238809D01*
X154638095Y-114238809D02*
X154590476Y-114191190D01*
X154590476Y-114191190D02*
X154495238Y-114143571D01*
X154495238Y-114143571D02*
X154304762Y-114143571D01*
X154304762Y-114143571D02*
X154209524Y-114191190D01*
X154209524Y-114191190D02*
X154161905Y-114238809D01*
X154161905Y-114238809D02*
X154114286Y-114334047D01*
%TO.C,R7*%
X153733333Y-113012619D02*
X153400000Y-112536428D01*
X153161905Y-113012619D02*
X153161905Y-112012619D01*
X153161905Y-112012619D02*
X153542857Y-112012619D01*
X153542857Y-112012619D02*
X153638095Y-112060238D01*
X153638095Y-112060238D02*
X153685714Y-112107857D01*
X153685714Y-112107857D02*
X153733333Y-112203095D01*
X153733333Y-112203095D02*
X153733333Y-112345952D01*
X153733333Y-112345952D02*
X153685714Y-112441190D01*
X153685714Y-112441190D02*
X153638095Y-112488809D01*
X153638095Y-112488809D02*
X153542857Y-112536428D01*
X153542857Y-112536428D02*
X153161905Y-112536428D01*
X154066667Y-112012619D02*
X154733333Y-112012619D01*
X154733333Y-112012619D02*
X154304762Y-113012619D01*
D11*
%TO.C,R23*%
X141949850Y-113769370D02*
X141642568Y-113769370D01*
X141949850Y-113009370D02*
X141642568Y-113009370D01*
%TO.C,R22*%
X136630000Y-109346359D02*
X136630000Y-109653641D01*
X135870000Y-109346359D02*
X135870000Y-109653641D01*
%TO.C,R12*%
X135870000Y-107403641D02*
X135870000Y-107096359D01*
X136630000Y-107403641D02*
X136630000Y-107096359D01*
D12*
%TO.C,Q6*%
X137500000Y-104325000D02*
X137500000Y-104625000D01*
X137650000Y-106625000D02*
X137650000Y-106625000D01*
X137750000Y-106625000D02*
X137750000Y-106625000D01*
X137950000Y-104325000D02*
X137500000Y-104325000D01*
X138050000Y-106325000D02*
X138450000Y-106325000D01*
X138550000Y-104325000D02*
X139000000Y-104325000D01*
X139000000Y-104325000D02*
X139000000Y-104625000D01*
X137750000Y-106625000D02*
G75*
G03*
X137650000Y-106625000I-50000J0D01*
G01*
X137650000Y-106625000D02*
G75*
G03*
X137750000Y-106625000I50000J0D01*
G01*
D11*
%TO.C,R5*%
X151162742Y-110277500D02*
X151637258Y-110277500D01*
X151162742Y-111322500D02*
X151637258Y-111322500D01*
%TO.C,R15*%
X148130000Y-96346359D02*
X148130000Y-96653641D01*
X147370000Y-96346359D02*
X147370000Y-96653641D01*
%TO.C,R1*%
X136666359Y-81920000D02*
X136973641Y-81920000D01*
X136666359Y-82680000D02*
X136973641Y-82680000D01*
D12*
%TO.C,Q3*%
X138825000Y-108070000D02*
X138825000Y-108070000D01*
X138825000Y-107970000D02*
X138825000Y-107970000D01*
X138825000Y-107970000D02*
G75*
G03*
X138825000Y-108070000I0J-50000D01*
G01*
X138825000Y-108070000D02*
G75*
G03*
X138825000Y-107970000I0J50000D01*
G01*
D11*
%TO.C,D5*%
X138550000Y-124060000D02*
X140250000Y-124060000D01*
X138550000Y-124060000D02*
X138550000Y-121400000D01*
X140250000Y-124060000D02*
X140250000Y-121400000D01*
%TO.C,Q4*%
X143440000Y-90700000D02*
X143440000Y-92375000D01*
X143440000Y-90700000D02*
X143440000Y-90050000D01*
X146560000Y-90700000D02*
X146560000Y-91350000D01*
X146560000Y-90700000D02*
X146560000Y-90050000D01*
%TO.C,D2*%
X143065000Y-117485000D02*
X144535000Y-117485000D01*
X144535000Y-117485000D02*
X144535000Y-115200000D01*
X143065000Y-115200000D02*
X143065000Y-117485000D01*
%TO.C,R13*%
X144380000Y-107606359D02*
X144380000Y-107913641D01*
X143620000Y-107606359D02*
X143620000Y-107913641D01*
%TO.C,C12*%
X143640000Y-110107836D02*
X143640000Y-109892164D01*
X144360000Y-110107836D02*
X144360000Y-109892164D01*
%TO.C,TP5*%
X137450000Y-91750000D02*
G75*
G03*
X137450000Y-91750000I-950000J0D01*
G01*
D13*
%TO.C,U2*%
X143279400Y-106324800D02*
X145006600Y-106324800D01*
X145006600Y-103175200D02*
X143279400Y-103175200D01*
X145006600Y-105105600D02*
X145006600Y-104394400D01*
D11*
%TO.C,Q5*%
X138440000Y-95400000D02*
X138440000Y-97075000D01*
X138440000Y-95400000D02*
X138440000Y-94750000D01*
X141560000Y-95400000D02*
X141560000Y-96050000D01*
X141560000Y-95400000D02*
X141560000Y-94750000D01*
%TO.C,C15*%
X147924027Y-102651410D02*
X148139699Y-102651410D01*
X147924027Y-103371410D02*
X148139699Y-103371410D01*
%TO.C,JP4*%
X140550000Y-101900000D02*
X139950000Y-101900000D01*
X139250000Y-101200000D02*
X139250000Y-99800000D01*
X141250000Y-99800000D02*
X141250000Y-101200000D01*
X139950000Y-99100000D02*
X140550000Y-99100000D01*
X139250000Y-101200000D02*
G75*
G03*
X139950000Y-101900000I699999J-1D01*
G01*
X140550000Y-101900000D02*
G75*
G03*
X141250000Y-101200000I1J699999D01*
G01*
X139950000Y-99100000D02*
G75*
G03*
X139250000Y-99800000I0J-700000D01*
G01*
X141250000Y-99800000D02*
G75*
G03*
X140550000Y-99100000I-700000J0D01*
G01*
%TO.C,C14*%
X145837836Y-99160000D02*
X145622164Y-99160000D01*
X145837836Y-98440000D02*
X145622164Y-98440000D01*
%TO.C,C3*%
X141660000Y-90467164D02*
X141660000Y-90682836D01*
X140940000Y-90467164D02*
X140940000Y-90682836D01*
%TO.C,JP3*%
X148800000Y-106800000D02*
X148200000Y-106800000D01*
X147500000Y-106100000D02*
X147500000Y-104700000D01*
X149500000Y-104700000D02*
X149500000Y-106100000D01*
X148200000Y-104000000D02*
X148800000Y-104000000D01*
X147500000Y-106100000D02*
G75*
G03*
X148200000Y-106800000I699999J-1D01*
G01*
X148800000Y-106800000D02*
G75*
G03*
X149500000Y-106100000I1J699999D01*
G01*
X148200000Y-104000000D02*
G75*
G03*
X147500000Y-104700000I0J-700000D01*
G01*
X149500000Y-104700000D02*
G75*
G03*
X148800000Y-104000000I-700000J0D01*
G01*
%TO.C,R20*%
X141953641Y-115380000D02*
X141646359Y-115380000D01*
X141953641Y-114620000D02*
X141646359Y-114620000D01*
%TO.C,R4*%
X143763000Y-101653641D02*
X143763000Y-101346359D01*
X144523000Y-101653641D02*
X144523000Y-101346359D01*
%TO.C,G\u002A\u002A\u002A*%
G36*
X149792670Y-120131781D02*
G01*
X149815794Y-120147559D01*
X149832866Y-120160716D01*
X149881051Y-120196802D01*
X149940095Y-120237384D01*
X150003232Y-120278147D01*
X150063696Y-120314776D01*
X150114718Y-120342959D01*
X150131805Y-120351286D01*
X150169847Y-120367036D01*
X150222350Y-120386617D01*
X150280797Y-120406914D01*
X150311862Y-120417086D01*
X150431900Y-120455425D01*
X150620436Y-120825526D01*
X150664995Y-120912709D01*
X150706408Y-120993189D01*
X150743349Y-121064430D01*
X150774493Y-121123900D01*
X150798516Y-121169066D01*
X150814091Y-121197395D01*
X150819601Y-121206255D01*
X150829131Y-121199713D01*
X150850498Y-121175167D01*
X150882209Y-121134581D01*
X150922772Y-121079917D01*
X150970695Y-121013140D01*
X151021188Y-120940981D01*
X151212146Y-120665079D01*
X151759952Y-120663705D01*
X151736387Y-120696716D01*
X151724440Y-120712743D01*
X151699413Y-120745774D01*
X151662857Y-120793779D01*
X151616322Y-120854727D01*
X151561361Y-120926589D01*
X151499525Y-121007334D01*
X151432364Y-121094934D01*
X151364854Y-121182898D01*
X151016887Y-121636071D01*
X151357831Y-122358030D01*
X151415881Y-122481111D01*
X151470713Y-122597679D01*
X151521494Y-122705943D01*
X151567390Y-122804110D01*
X151607568Y-122890389D01*
X151641195Y-122962988D01*
X151667437Y-123020116D01*
X151685461Y-123059980D01*
X151694433Y-123080790D01*
X151695284Y-123083481D01*
X151684607Y-123078633D01*
X151658710Y-123062755D01*
X151622008Y-123038630D01*
X151596014Y-123020924D01*
X151466558Y-122941199D01*
X151322007Y-122869047D01*
X151171054Y-122808792D01*
X151165445Y-122806842D01*
X151115229Y-122788893D01*
X151073497Y-122772878D01*
X151045510Y-122760879D01*
X151036838Y-122755911D01*
X151029433Y-122743047D01*
X151013015Y-122711138D01*
X150988881Y-122662820D01*
X150958332Y-122600728D01*
X150922668Y-122527497D01*
X150883187Y-122445762D01*
X150857415Y-122392082D01*
X150816229Y-122306395D01*
X150778066Y-122227570D01*
X150744227Y-122158242D01*
X150716007Y-122101050D01*
X150694706Y-122058631D01*
X150681621Y-122033620D01*
X150678208Y-122028017D01*
X150669020Y-122034704D01*
X150647976Y-122058671D01*
X150616952Y-122097506D01*
X150577822Y-122148796D01*
X150532462Y-122210130D01*
X150482748Y-122279095D01*
X150479899Y-122283098D01*
X150291260Y-122548299D01*
X150021473Y-122548299D01*
X149932711Y-122547811D01*
X149859788Y-122546404D01*
X149804672Y-122544162D01*
X149769331Y-122541170D01*
X149755735Y-122537510D01*
X149755687Y-122536924D01*
X149763610Y-122525427D01*
X149784798Y-122496822D01*
X149817818Y-122452987D01*
X149861243Y-122395800D01*
X149913641Y-122327137D01*
X149973582Y-122248877D01*
X150039638Y-122162897D01*
X150110376Y-122071075D01*
X150117743Y-122061528D01*
X150475797Y-121597507D01*
X150451586Y-121541735D01*
X150442162Y-121521152D01*
X150423309Y-121480967D01*
X150395999Y-121423219D01*
X150361200Y-121349944D01*
X150319884Y-121263179D01*
X150273020Y-121164963D01*
X150221579Y-121057332D01*
X150166531Y-120942324D01*
X150108847Y-120821977D01*
X150102513Y-120808772D01*
X150045540Y-120689809D01*
X149991878Y-120577370D01*
X149942395Y-120473300D01*
X149897959Y-120379443D01*
X149859438Y-120297644D01*
X149827701Y-120229748D01*
X149803615Y-120177600D01*
X149788049Y-120143043D01*
X149781871Y-120127924D01*
X149781829Y-120127402D01*
X149792670Y-120131781D01*
G37*
%TO.C,U8*%
X146940000Y-100250000D02*
X146940000Y-102050000D01*
X146940000Y-100250000D02*
X146940000Y-99450000D01*
X150060000Y-100250000D02*
X150060000Y-101050000D01*
X150060000Y-100250000D02*
X150060000Y-99450000D01*
%TO.C,Y1*%
X139400000Y-87775000D02*
X139400000Y-89375000D01*
X139400000Y-89375000D02*
X141800000Y-89375000D01*
X141800000Y-87775000D02*
X139400000Y-87775000D01*
%TO.C,C8*%
X141909175Y-109838487D02*
X141909175Y-109557327D01*
X142929175Y-109838487D02*
X142929175Y-109557327D01*
%TO.C,kibuzzard-64258E65*%
G36*
X136518070Y-100861466D02*
G01*
X136621456Y-100886469D01*
X136709761Y-100925759D01*
X136782588Y-100976956D01*
X136839539Y-101039266D01*
X136880219Y-101111894D01*
X136904627Y-101192459D01*
X136912763Y-101278581D01*
X136904031Y-101380975D01*
X136884188Y-101459556D01*
X136860375Y-101514325D01*
X136841325Y-101546869D01*
X136685750Y-101496069D01*
X136725438Y-101410344D01*
X136742900Y-101305569D01*
X136717500Y-101188094D01*
X136646856Y-101109512D01*
X136538906Y-101065062D01*
X136472827Y-101054942D01*
X136400000Y-101051569D01*
X136292844Y-101057742D01*
X136206325Y-101076263D01*
X136140444Y-101107131D01*
X136077936Y-101175791D01*
X136057100Y-101270644D01*
X136058688Y-101308744D01*
X136063450Y-101346844D01*
X136422225Y-101346844D01*
X136422225Y-101542106D01*
X135931688Y-101542106D01*
X135903113Y-101433362D01*
X135891206Y-101351805D01*
X135887238Y-101254769D01*
X135895373Y-101167258D01*
X135919781Y-101088875D01*
X135960263Y-101020414D01*
X136016619Y-100962669D01*
X136088850Y-100916234D01*
X136176956Y-100881706D01*
X136280739Y-100860275D01*
X136400000Y-100853131D01*
X136518070Y-100861466D01*
G37*
%TO.C,C6*%
X142133000Y-101390580D02*
X142133000Y-101109420D01*
X143153000Y-101390580D02*
X143153000Y-101109420D01*
%TO.C,R10*%
X146037062Y-110858933D02*
X145729780Y-110858933D01*
X146037062Y-110098933D02*
X145729780Y-110098933D01*
%TO.C,kibuzzard-642BF0F2*%
G36*
X151265938Y-124265113D02*
G01*
X151308800Y-124368300D01*
X151265938Y-124474662D01*
X151167513Y-124511175D01*
X151113537Y-124501650D01*
X151068294Y-124473869D01*
X151036544Y-124429419D01*
X151024638Y-124368300D01*
X151036544Y-124308769D01*
X151068294Y-124265113D01*
X151113537Y-124238125D01*
X151167513Y-124228600D01*
X151265938Y-124265113D01*
G37*
G36*
X150508700Y-124331787D02*
G01*
X150703962Y-124331787D01*
X150703962Y-124493712D01*
X150107063Y-124493712D01*
X150107063Y-124331787D01*
X150313438Y-124331787D01*
X150313438Y-123782512D01*
X150211837Y-123838869D01*
X150115000Y-123877762D01*
X150051500Y-123715837D01*
X150134050Y-123679325D01*
X150222950Y-123630112D01*
X150307087Y-123572962D01*
X150375350Y-123511050D01*
X150508700Y-123511050D01*
X150508700Y-124331787D01*
G37*
G36*
X149424239Y-123809897D02*
G01*
X149442694Y-123876175D01*
X149463133Y-123944636D01*
X149484762Y-124013494D01*
X149507186Y-124081558D01*
X149530006Y-124147637D01*
X149573662Y-124266700D01*
X149619700Y-124147637D01*
X149644902Y-124081558D01*
X149669706Y-124013494D01*
X149693916Y-123944636D01*
X149717331Y-123876175D01*
X149738167Y-123809897D01*
X149754637Y-123747587D01*
X149953075Y-123747587D01*
X149918845Y-123858068D01*
X149882828Y-123964083D01*
X149845026Y-124065633D01*
X149805437Y-124162719D01*
X149752521Y-124283810D01*
X149701721Y-124394141D01*
X149653037Y-124493712D01*
X149489525Y-124493712D01*
X149441635Y-124394141D01*
X149393217Y-124283810D01*
X149344269Y-124162719D01*
X149307806Y-124065633D01*
X149272236Y-123964083D01*
X149237559Y-123858068D01*
X149203775Y-123747587D01*
X149408562Y-123747587D01*
X149424239Y-123809897D01*
G37*
G36*
X152059688Y-123506287D02*
G01*
X152158113Y-123558675D01*
X152226375Y-123646781D01*
X152251775Y-123769812D01*
X152232725Y-123867444D01*
X152181925Y-123958725D01*
X152110488Y-124044450D01*
X152029525Y-124123825D01*
X151981900Y-124169069D01*
X151931100Y-124223044D01*
X151890619Y-124279400D01*
X151873950Y-124331787D01*
X152296225Y-124331787D01*
X152296225Y-124493712D01*
X151654875Y-124493712D01*
X151650906Y-124454025D01*
X151651700Y-124420688D01*
X151659042Y-124344487D01*
X151681069Y-124274637D01*
X151714406Y-124210542D01*
X151755681Y-124151606D01*
X151802512Y-124097234D01*
X151852519Y-124046831D01*
X151902525Y-123999405D01*
X151949356Y-123953962D01*
X152023969Y-123868237D01*
X152053337Y-123784100D01*
X152016825Y-123691231D01*
X151924750Y-123658687D01*
X151827913Y-123680912D01*
X151727900Y-123755525D01*
X151631062Y-123619000D01*
X151699523Y-123561056D01*
X151777906Y-123520575D01*
X151861052Y-123496762D01*
X151943800Y-123488825D01*
X152059688Y-123506287D01*
G37*
%TO.C,U6*%
X143390000Y-95500000D02*
X143390000Y-97000000D01*
X146610000Y-94000000D02*
X146610000Y-97000000D01*
%TO.C,D3*%
X146485000Y-119222500D02*
X146485000Y-117752500D01*
X146485000Y-117752500D02*
X144200000Y-117752500D01*
X144200000Y-119222500D02*
X146485000Y-119222500D01*
%TO.C,TP6*%
X137450000Y-94250000D02*
G75*
G03*
X137450000Y-94250000I-950000J0D01*
G01*
%TO.C,TP8*%
X137450000Y-99250000D02*
G75*
G03*
X137450000Y-99250000I-950000J0D01*
G01*
D14*
%TO.C,U7*%
X137850000Y-76800000D02*
G75*
G03*
X137850000Y-76800000I-100000J0D01*
G01*
D11*
%TO.C,TP7*%
X137450000Y-96750000D02*
G75*
G03*
X137450000Y-96750000I-950000J0D01*
G01*
%TO.C,R8*%
X147120000Y-110153641D02*
X147120000Y-109846359D01*
X147880000Y-110153641D02*
X147880000Y-109846359D01*
D12*
%TO.C,Q2*%
X140110000Y-106400001D02*
G75*
G03*
X140110000Y-106400001I-50000J0D01*
G01*
D11*
%TO.C,R14*%
X145630000Y-107606359D02*
X145630000Y-107913641D01*
X144870000Y-107606359D02*
X144870000Y-107913641D01*
%TO.C,R16*%
X142120000Y-94153641D02*
X142120000Y-93846359D01*
X142880000Y-94153641D02*
X142880000Y-93846359D01*
%TO.C,C4*%
X136927836Y-80060000D02*
X136712164Y-80060000D01*
X136927836Y-79340000D02*
X136712164Y-79340000D01*
D12*
%TO.C,S2*%
X142400000Y-121025000D02*
X144250000Y-121025000D01*
X142400000Y-121275000D02*
X142400000Y-121025000D01*
X142400000Y-124275000D02*
X142400000Y-124525000D01*
X142400000Y-124525000D02*
X144250000Y-124525000D01*
X145250000Y-121025000D02*
X147100000Y-121025000D01*
X145250000Y-124525000D02*
X147100000Y-124525000D01*
X147100000Y-121025000D02*
X147100000Y-121275000D01*
X147100000Y-124525000D02*
X147100000Y-124275000D01*
D14*
X148550000Y-121775000D02*
X148550000Y-121775000D01*
X148550000Y-121975000D02*
X148550000Y-121975000D01*
X148550000Y-121975000D02*
G75*
G03*
X148550000Y-121775000I0J100000D01*
G01*
X148550000Y-121775000D02*
G75*
G03*
X148550000Y-121975000I0J-100000D01*
G01*
%TO.C,kibuzzard-64258E23*%
G36*
X139415900Y-114841814D02*
G01*
X139432569Y-114936469D01*
X139452611Y-115038862D01*
X139474638Y-115144431D01*
X139498450Y-115250794D01*
X139523850Y-115355569D01*
X139549845Y-115454192D01*
X139575444Y-115542100D01*
X139600844Y-115455383D01*
X139626244Y-115357156D01*
X139650850Y-115252381D01*
X139673869Y-115146019D01*
X139695300Y-115040252D01*
X139715144Y-114937262D01*
X139732606Y-114842012D01*
X139746894Y-114759462D01*
X139951681Y-114759462D01*
X139930448Y-114860269D01*
X139904850Y-114972187D01*
X139875084Y-115092639D01*
X139841350Y-115219044D01*
X139816744Y-115305827D01*
X139790550Y-115393669D01*
X139762769Y-115482569D01*
X139733841Y-115571028D01*
X139704208Y-115657547D01*
X139673869Y-115742125D01*
X139472256Y-115742125D01*
X139432966Y-115625444D01*
X139391294Y-115494475D01*
X139363248Y-115402488D01*
X139336260Y-115310678D01*
X139310331Y-115219044D01*
X139285813Y-115129174D01*
X139263059Y-115042655D01*
X139242069Y-114959487D01*
X139215875Y-114848362D01*
X139197619Y-114759462D01*
X139403994Y-114759462D01*
X139415900Y-114841814D01*
G37*
G36*
X138816023Y-114742397D02*
G01*
X138882500Y-114757875D01*
X138983306Y-114815819D01*
X139042044Y-114903925D01*
X139061094Y-115013462D01*
X139027756Y-115126175D01*
X138938856Y-115208725D01*
X139006523Y-115248016D01*
X139057125Y-115302387D01*
X139088677Y-115370253D01*
X139099194Y-115450025D01*
X139076969Y-115575437D01*
X139008706Y-115674656D01*
X138956319Y-115711962D01*
X138891231Y-115739744D01*
X138813047Y-115757008D01*
X138721369Y-115762762D01*
X138644375Y-115757206D01*
X138566587Y-115743712D01*
X138497531Y-115726250D01*
X138448319Y-115708787D01*
X138486419Y-115545275D01*
X138580875Y-115578612D01*
X138644573Y-115591709D01*
X138719781Y-115596075D01*
X138804911Y-115585359D01*
X138860275Y-115553212D01*
X138900756Y-115446850D01*
X138885278Y-115380770D01*
X138838844Y-115338106D01*
X138768597Y-115314889D01*
X138681681Y-115307150D01*
X138621356Y-115307150D01*
X138621356Y-115145225D01*
X138694381Y-115145225D01*
X138754706Y-115138875D01*
X138808681Y-115118237D01*
X138847575Y-115080137D01*
X138862656Y-115019812D01*
X138830112Y-114934881D01*
X138740419Y-114903925D01*
X138630088Y-114922181D01*
X138535631Y-114967425D01*
X138465781Y-114824550D01*
X138579287Y-114766606D01*
X138654495Y-114744580D01*
X138738831Y-114737237D01*
X138816023Y-114742397D01*
G37*
D11*
%TO.C,C9*%
X139890000Y-103607836D02*
X139890000Y-103392164D01*
X140610000Y-103607836D02*
X140610000Y-103392164D01*
%TO.C,TP4*%
X137450000Y-89250000D02*
G75*
G03*
X137450000Y-89250000I-950000J0D01*
G01*
%TO.C,R17*%
X142120000Y-96953641D02*
X142120000Y-96646359D01*
X142880000Y-96953641D02*
X142880000Y-96646359D01*
%TO.C,D1*%
X145465000Y-117447500D02*
X146935000Y-117447500D01*
X146935000Y-117447500D02*
X146935000Y-115162500D01*
X145465000Y-115162500D02*
X145465000Y-117447500D01*
D12*
%TO.C,S1*%
X151460000Y-106020000D02*
X151460000Y-90780000D01*
X153740000Y-106020000D02*
X151460000Y-106020000D01*
X151460000Y-90780000D02*
X153740000Y-90780000D01*
X153740000Y-90780000D02*
X153740000Y-106020000D01*
D11*
%TO.C,R2*%
X148580000Y-88021359D02*
X148580000Y-88328641D01*
X147820000Y-88021359D02*
X147820000Y-88328641D01*
%TO.C,C10*%
X140940000Y-103607836D02*
X140940000Y-103392164D01*
X141660000Y-103607836D02*
X141660000Y-103392164D01*
%TO.C,R21*%
X142420000Y-118953641D02*
X142420000Y-118646359D01*
X143180000Y-118953641D02*
X143180000Y-118646359D01*
%TO.C,C5*%
X136907836Y-78760000D02*
X136692164Y-78760000D01*
X136907836Y-78040000D02*
X136692164Y-78040000D01*
%TO.C,R3*%
X148046359Y-114620000D02*
X148353641Y-114620000D01*
X148046359Y-115380000D02*
X148353641Y-115380000D01*
D15*
%TO.C,Q1*%
X138620000Y-111540000D02*
X137935000Y-111540000D01*
X137935000Y-114460000D02*
X138620000Y-114460000D01*
X137935000Y-113615000D02*
X137935000Y-114460000D01*
X137935000Y-111540000D02*
X137935000Y-112385000D01*
D14*
X140931000Y-113950000D02*
G75*
G03*
X140931000Y-113950000I-100000J0D01*
G01*
D11*
%TO.C,R9*%
X149130000Y-109846359D02*
X149130000Y-110153641D01*
X148370000Y-109846359D02*
X148370000Y-110153641D01*
%TO.C,JP1*%
X136500000Y-121000000D02*
X137100000Y-121000000D01*
X137800000Y-121700000D02*
X137800000Y-123100000D01*
X135800000Y-123100000D02*
X135800000Y-121700000D01*
X137100000Y-123800000D02*
X136500000Y-123800000D01*
X137800000Y-121700000D02*
G75*
G03*
X137100000Y-121000000I-699999J1D01*
G01*
X136500000Y-121000000D02*
G75*
G03*
X135800000Y-121700000I-1J-699999D01*
G01*
X137100000Y-123800000D02*
G75*
G03*
X137800000Y-123100000I0J700000D01*
G01*
X135800000Y-123100000D02*
G75*
G03*
X136500000Y-123800000I700000J0D01*
G01*
%TO.C,C1*%
X137691838Y-83831537D02*
X137691838Y-84047209D01*
X136971838Y-83831537D02*
X136971838Y-84047209D01*
%TO.C,kibuzzard-64258E17*%
G36*
X151184175Y-115684931D02*
G01*
X150415825Y-115684931D01*
X150415825Y-115515069D01*
X151184175Y-115515069D01*
X151184175Y-115684931D01*
G37*
%TO.C,R6*%
X151162742Y-113777500D02*
X151637258Y-113777500D01*
X151162742Y-114822500D02*
X151637258Y-114822500D01*
%TO.C,R11*%
X141653641Y-107620000D02*
X141346359Y-107620000D01*
X141653641Y-106860000D02*
X141346359Y-106860000D01*
%TO.C,TP3*%
X137450000Y-86750000D02*
G75*
G03*
X137450000Y-86750000I-950000J0D01*
G01*
%TO.C,R18*%
X147370000Y-94653641D02*
X147370000Y-94346359D01*
X148130000Y-94653641D02*
X148130000Y-94346359D01*
%TO.C,C11*%
X146860000Y-107632164D02*
X146860000Y-107847836D01*
X146140000Y-107632164D02*
X146140000Y-107847836D01*
%TO.C,C7*%
X146153000Y-101109420D02*
X146153000Y-101390580D01*
X145133000Y-101109420D02*
X145133000Y-101390580D01*
%TO.C,R19*%
X136973641Y-81380000D02*
X136666359Y-81380000D01*
X136973641Y-80620000D02*
X136666359Y-80620000D01*
%TO.C,R7*%
X151162742Y-112027500D02*
X151637258Y-112027500D01*
X151162742Y-113072500D02*
X151637258Y-113072500D01*
%TO.C,C2*%
X140260000Y-90472164D02*
X140260000Y-90687836D01*
X139540000Y-90472164D02*
X139540000Y-90687836D01*
%TO.C,G\u002A\u002A\u002A*%
D16*
X153236475Y-80338071D02*
X153365685Y-80358639D01*
X153489252Y-80378667D01*
X153604528Y-80397701D01*
X153708863Y-80415286D01*
X153799610Y-80430970D01*
X153874121Y-80444299D01*
X153929748Y-80454819D01*
X153963843Y-80462077D01*
X153970178Y-80463756D01*
X154065197Y-80503676D01*
X154149318Y-80561524D01*
X154218446Y-80633518D01*
X154268492Y-80715874D01*
X154282931Y-80752936D01*
X154290081Y-80785936D01*
X154296575Y-80836180D01*
X154302202Y-80898618D01*
X154306753Y-80968196D01*
X154310018Y-81039864D01*
X154311786Y-81108570D01*
X154311849Y-81169262D01*
X154309997Y-81216888D01*
X154306018Y-81246396D01*
X154303671Y-81252160D01*
X154297456Y-81255756D01*
X154283734Y-81257080D01*
X154260080Y-81255798D01*
X154224067Y-81251576D01*
X154173267Y-81244079D01*
X154105253Y-81232973D01*
X154017598Y-81217924D01*
X153907875Y-81198597D01*
X153883836Y-81194326D01*
X153882456Y-81182300D01*
X153881779Y-81150721D01*
X153881892Y-81105428D01*
X153882183Y-81084468D01*
X153880510Y-81015226D01*
X153871054Y-80965327D01*
X153851290Y-80929265D01*
X153818692Y-80901531D01*
X153791280Y-80886279D01*
X153772637Y-80881124D01*
X153731995Y-80872573D01*
X153672454Y-80861141D01*
X153597111Y-80847348D01*
X153509066Y-80831708D01*
X153411417Y-80814739D01*
X153307262Y-80796959D01*
X153199700Y-80778884D01*
X153091830Y-80761031D01*
X152986749Y-80743917D01*
X152887557Y-80728060D01*
X152797352Y-80713975D01*
X152719232Y-80702181D01*
X152656296Y-80693194D01*
X152611642Y-80687531D01*
X152589138Y-80685700D01*
X152583051Y-80680026D01*
X152578589Y-80661160D01*
X152575553Y-80626342D01*
X152573745Y-80572809D01*
X152572967Y-80497800D01*
X152572900Y-80459549D01*
X152572900Y-80233398D01*
X153236475Y-80338071D01*
G36*
X153236475Y-80338071D02*
G01*
X153365685Y-80358639D01*
X153489252Y-80378667D01*
X153604528Y-80397701D01*
X153708863Y-80415286D01*
X153799610Y-80430970D01*
X153874121Y-80444299D01*
X153929748Y-80454819D01*
X153963843Y-80462077D01*
X153970178Y-80463756D01*
X154065197Y-80503676D01*
X154149318Y-80561524D01*
X154218446Y-80633518D01*
X154268492Y-80715874D01*
X154282931Y-80752936D01*
X154290081Y-80785936D01*
X154296575Y-80836180D01*
X154302202Y-80898618D01*
X154306753Y-80968196D01*
X154310018Y-81039864D01*
X154311786Y-81108570D01*
X154311849Y-81169262D01*
X154309997Y-81216888D01*
X154306018Y-81246396D01*
X154303671Y-81252160D01*
X154297456Y-81255756D01*
X154283734Y-81257080D01*
X154260080Y-81255798D01*
X154224067Y-81251576D01*
X154173267Y-81244079D01*
X154105253Y-81232973D01*
X154017598Y-81217924D01*
X153907875Y-81198597D01*
X153883836Y-81194326D01*
X153882456Y-81182300D01*
X153881779Y-81150721D01*
X153881892Y-81105428D01*
X153882183Y-81084468D01*
X153880510Y-81015226D01*
X153871054Y-80965327D01*
X153851290Y-80929265D01*
X153818692Y-80901531D01*
X153791280Y-80886279D01*
X153772637Y-80881124D01*
X153731995Y-80872573D01*
X153672454Y-80861141D01*
X153597111Y-80847348D01*
X153509066Y-80831708D01*
X153411417Y-80814739D01*
X153307262Y-80796959D01*
X153199700Y-80778884D01*
X153091830Y-80761031D01*
X152986749Y-80743917D01*
X152887557Y-80728060D01*
X152797352Y-80713975D01*
X152719232Y-80702181D01*
X152656296Y-80693194D01*
X152611642Y-80687531D01*
X152589138Y-80685700D01*
X152583051Y-80680026D01*
X152578589Y-80661160D01*
X152575553Y-80626342D01*
X152573745Y-80572809D01*
X152572967Y-80497800D01*
X152572900Y-80459549D01*
X152572900Y-80233398D01*
X153236475Y-80338071D01*
G37*
X153499045Y-84239030D02*
X153334051Y-84217946D01*
X153179421Y-84184104D01*
X153038109Y-84138387D01*
X152913068Y-84081678D01*
X152807252Y-84014863D01*
X152756838Y-83972749D01*
X152688703Y-83898228D01*
X152636270Y-83815073D01*
X152598446Y-83720122D01*
X152574142Y-83610209D01*
X152562266Y-83482171D01*
X152560638Y-83403500D01*
X152561854Y-83371656D01*
X152945137Y-83371656D01*
X152945238Y-83441581D01*
X152960107Y-83512328D01*
X152989738Y-83578941D01*
X153033912Y-83636247D01*
X153075398Y-83670490D01*
X153127517Y-83699830D01*
X153194029Y-83725753D01*
X153278695Y-83749745D01*
X153376097Y-83771438D01*
X153504934Y-83794121D01*
X153612441Y-83805260D01*
X153699924Y-83804828D01*
X153768692Y-83792798D01*
X153820053Y-83769143D01*
X153829474Y-83762110D01*
X153860141Y-83722654D01*
X153881185Y-83665882D01*
X153891453Y-83598427D01*
X153889791Y-83526917D01*
X153879682Y-83473350D01*
X153857361Y-83417144D01*
X153821965Y-83369159D01*
X153770950Y-83327685D01*
X153701772Y-83291012D01*
X153611885Y-83257428D01*
X153518047Y-83230231D01*
X153440601Y-83213540D01*
X153356510Y-83201686D01*
X153271225Y-83194826D01*
X153190194Y-83193115D01*
X153118867Y-83196708D01*
X153062694Y-83205762D01*
X153033489Y-83216390D01*
X152989257Y-83254104D01*
X152959808Y-83307512D01*
X152945137Y-83371656D01*
X152561854Y-83371656D01*
X152566188Y-83258127D01*
X152583284Y-83134347D01*
X152612601Y-83030801D01*
X152654815Y-82946125D01*
X152710600Y-82878958D01*
X152780631Y-82827938D01*
X152863686Y-82792308D01*
X152925135Y-82777957D01*
X153005426Y-82767074D01*
X153098200Y-82759953D01*
X153197099Y-82756890D01*
X153295764Y-82758181D01*
X153387835Y-82764120D01*
X153412819Y-82766805D01*
X153563843Y-82790731D01*
X153705505Y-82824853D01*
X153834502Y-82867937D01*
X153947529Y-82918749D01*
X154041281Y-82976057D01*
X154096306Y-83021923D01*
X154157330Y-83095962D01*
X154210124Y-83189531D01*
X154251788Y-83297322D01*
X154257802Y-83317543D01*
X154264089Y-83351356D01*
X154269975Y-83403967D01*
X154275207Y-83469682D01*
X154279533Y-83542807D01*
X154282699Y-83617647D01*
X154284453Y-83688509D01*
X154284541Y-83749700D01*
X154282710Y-83795524D01*
X154279958Y-83816250D01*
X154258244Y-83900846D01*
X154237549Y-83965837D01*
X154215378Y-84016774D01*
X154189233Y-84059210D01*
X154156617Y-84098694D01*
X154149528Y-84106273D01*
X154092436Y-84156144D01*
X154025686Y-84194068D01*
X153946031Y-84220997D01*
X153850225Y-84237884D01*
X153735023Y-84245679D01*
X153671450Y-84246470D01*
X153612441Y-84243924D01*
X153499045Y-84239030D01*
G36*
X153499045Y-84239030D02*
G01*
X153334051Y-84217946D01*
X153179421Y-84184104D01*
X153038109Y-84138387D01*
X152913068Y-84081678D01*
X152807252Y-84014863D01*
X152756838Y-83972749D01*
X152688703Y-83898228D01*
X152636270Y-83815073D01*
X152598446Y-83720122D01*
X152574142Y-83610209D01*
X152562266Y-83482171D01*
X152560638Y-83403500D01*
X152561854Y-83371656D01*
X152945137Y-83371656D01*
X152945238Y-83441581D01*
X152960107Y-83512328D01*
X152989738Y-83578941D01*
X153033912Y-83636247D01*
X153075398Y-83670490D01*
X153127517Y-83699830D01*
X153194029Y-83725753D01*
X153278695Y-83749745D01*
X153376097Y-83771438D01*
X153504934Y-83794121D01*
X153612441Y-83805260D01*
X153699924Y-83804828D01*
X153768692Y-83792798D01*
X153820053Y-83769143D01*
X153829474Y-83762110D01*
X153860141Y-83722654D01*
X153881185Y-83665882D01*
X153891453Y-83598427D01*
X153889791Y-83526917D01*
X153879682Y-83473350D01*
X153857361Y-83417144D01*
X153821965Y-83369159D01*
X153770950Y-83327685D01*
X153701772Y-83291012D01*
X153611885Y-83257428D01*
X153518047Y-83230231D01*
X153440601Y-83213540D01*
X153356510Y-83201686D01*
X153271225Y-83194826D01*
X153190194Y-83193115D01*
X153118867Y-83196708D01*
X153062694Y-83205762D01*
X153033489Y-83216390D01*
X152989257Y-83254104D01*
X152959808Y-83307512D01*
X152945137Y-83371656D01*
X152561854Y-83371656D01*
X152566188Y-83258127D01*
X152583284Y-83134347D01*
X152612601Y-83030801D01*
X152654815Y-82946125D01*
X152710600Y-82878958D01*
X152780631Y-82827938D01*
X152863686Y-82792308D01*
X152925135Y-82777957D01*
X153005426Y-82767074D01*
X153098200Y-82759953D01*
X153197099Y-82756890D01*
X153295764Y-82758181D01*
X153387835Y-82764120D01*
X153412819Y-82766805D01*
X153563843Y-82790731D01*
X153705505Y-82824853D01*
X153834502Y-82867937D01*
X153947529Y-82918749D01*
X154041281Y-82976057D01*
X154096306Y-83021923D01*
X154157330Y-83095962D01*
X154210124Y-83189531D01*
X154251788Y-83297322D01*
X154257802Y-83317543D01*
X154264089Y-83351356D01*
X154269975Y-83403967D01*
X154275207Y-83469682D01*
X154279533Y-83542807D01*
X154282699Y-83617647D01*
X154284453Y-83688509D01*
X154284541Y-83749700D01*
X154282710Y-83795524D01*
X154279958Y-83816250D01*
X154258244Y-83900846D01*
X154237549Y-83965837D01*
X154215378Y-84016774D01*
X154189233Y-84059210D01*
X154156617Y-84098694D01*
X154149528Y-84106273D01*
X154092436Y-84156144D01*
X154025686Y-84194068D01*
X153946031Y-84220997D01*
X153850225Y-84237884D01*
X153735023Y-84245679D01*
X153671450Y-84246470D01*
X153612441Y-84243924D01*
X153499045Y-84239030D01*
G37*
X152602025Y-77172568D02*
X152633167Y-77195943D01*
X152679972Y-77231419D01*
X152740209Y-77277298D01*
X152811650Y-77331879D01*
X152892063Y-77393464D01*
X152979220Y-77460354D01*
X153011497Y-77485158D01*
X153100501Y-77553526D01*
X153183537Y-77617203D01*
X153258378Y-77674487D01*
X153322796Y-77723680D01*
X153374566Y-77763082D01*
X153411459Y-77790992D01*
X153431249Y-77805713D01*
X153433747Y-77807449D01*
X153448158Y-77804068D01*
X153483802Y-77790404D01*
X153539028Y-77767195D01*
X153612184Y-77735177D01*
X153701617Y-77695084D01*
X153805675Y-77647652D01*
X153922705Y-77593619D01*
X154051056Y-77533718D01*
X154098832Y-77511275D01*
X154218712Y-77454949D01*
X154331528Y-77402098D01*
X154435226Y-77353674D01*
X154527747Y-77310631D01*
X154607036Y-77273921D01*
X154671036Y-77244497D01*
X154717692Y-77223311D01*
X154744946Y-77211317D01*
X154751411Y-77208916D01*
X154746108Y-77220118D01*
X154729448Y-77246886D01*
X154704707Y-77284021D01*
X154697308Y-77294800D01*
X154655380Y-77361890D01*
X154610094Y-77444951D01*
X154565511Y-77535661D01*
X154525692Y-77625701D01*
X154494698Y-77706748D01*
X154491249Y-77717042D01*
X154463151Y-77802734D01*
X154245100Y-77907425D01*
X154166159Y-77945356D01*
X154085261Y-77984277D01*
X154009038Y-78020996D01*
X153944118Y-78052318D01*
X153906859Y-78070336D01*
X153786669Y-78128556D01*
X154024334Y-78297528D01*
X154262000Y-78466500D01*
X154262000Y-78960230D01*
X154227075Y-78935229D01*
X154209371Y-78921991D01*
X154174015Y-78895073D01*
X154123440Y-78856345D01*
X154060079Y-78807674D01*
X153986364Y-78750930D01*
X153904728Y-78687983D01*
X153817604Y-78620701D01*
X153804800Y-78610804D01*
X153718292Y-78544185D01*
X153637862Y-78482730D01*
X153565762Y-78428123D01*
X153504244Y-78382050D01*
X153455562Y-78346195D01*
X153421968Y-78322244D01*
X153405715Y-78311882D01*
X153404750Y-78311588D01*
X153391272Y-78316992D01*
X153357004Y-78332471D01*
X153304023Y-78357043D01*
X153234403Y-78389728D01*
X153150223Y-78429544D01*
X153053559Y-78475508D01*
X152946488Y-78526640D01*
X152831085Y-78581959D01*
X152738000Y-78626719D01*
X152617922Y-78684457D01*
X152504840Y-78738678D01*
X152400793Y-78788415D01*
X152307823Y-78832699D01*
X152227968Y-78870563D01*
X152163269Y-78901038D01*
X152115767Y-78923157D01*
X152087502Y-78935951D01*
X152080120Y-78938834D01*
X152085524Y-78928208D01*
X152103195Y-78902031D01*
X152129951Y-78864912D01*
X152146644Y-78842488D01*
X152231945Y-78714805D01*
X152302279Y-78580095D01*
X152354143Y-78445437D01*
X152368889Y-78393344D01*
X152381672Y-78342537D01*
X152724936Y-78171282D01*
X152810720Y-78128257D01*
X152888668Y-78088728D01*
X152956004Y-78054135D01*
X153009953Y-78025923D01*
X153047737Y-78005532D01*
X153066582Y-77994406D01*
X153068200Y-77992908D01*
X153058201Y-77983999D01*
X153030133Y-77962821D01*
X152986881Y-77931452D01*
X152931336Y-77891971D01*
X152866384Y-77846457D01*
X152820921Y-77814920D01*
X152573642Y-77644050D01*
X152573271Y-77398826D01*
X152573470Y-77311371D01*
X152574483Y-77246708D01*
X152576481Y-77202236D01*
X152579635Y-77175353D01*
X152584117Y-77163461D01*
X152588774Y-77162994D01*
X152602025Y-77172568D01*
G36*
X152602025Y-77172568D02*
G01*
X152633167Y-77195943D01*
X152679972Y-77231419D01*
X152740209Y-77277298D01*
X152811650Y-77331879D01*
X152892063Y-77393464D01*
X152979220Y-77460354D01*
X153011497Y-77485158D01*
X153100501Y-77553526D01*
X153183537Y-77617203D01*
X153258378Y-77674487D01*
X153322796Y-77723680D01*
X153374566Y-77763082D01*
X153411459Y-77790992D01*
X153431249Y-77805713D01*
X153433747Y-77807449D01*
X153448158Y-77804068D01*
X153483802Y-77790404D01*
X153539028Y-77767195D01*
X153612184Y-77735177D01*
X153701617Y-77695084D01*
X153805675Y-77647652D01*
X153922705Y-77593619D01*
X154051056Y-77533718D01*
X154098832Y-77511275D01*
X154218712Y-77454949D01*
X154331528Y-77402098D01*
X154435226Y-77353674D01*
X154527747Y-77310631D01*
X154607036Y-77273921D01*
X154671036Y-77244497D01*
X154717692Y-77223311D01*
X154744946Y-77211317D01*
X154751411Y-77208916D01*
X154746108Y-77220118D01*
X154729448Y-77246886D01*
X154704707Y-77284021D01*
X154697308Y-77294800D01*
X154655380Y-77361890D01*
X154610094Y-77444951D01*
X154565511Y-77535661D01*
X154525692Y-77625701D01*
X154494698Y-77706748D01*
X154491249Y-77717042D01*
X154463151Y-77802734D01*
X154245100Y-77907425D01*
X154166159Y-77945356D01*
X154085261Y-77984277D01*
X154009038Y-78020996D01*
X153944118Y-78052318D01*
X153906859Y-78070336D01*
X153786669Y-78128556D01*
X154024334Y-78297528D01*
X154262000Y-78466500D01*
X154262000Y-78960230D01*
X154227075Y-78935229D01*
X154209371Y-78921991D01*
X154174015Y-78895073D01*
X154123440Y-78856345D01*
X154060079Y-78807674D01*
X153986364Y-78750930D01*
X153904728Y-78687983D01*
X153817604Y-78620701D01*
X153804800Y-78610804D01*
X153718292Y-78544185D01*
X153637862Y-78482730D01*
X153565762Y-78428123D01*
X153504244Y-78382050D01*
X153455562Y-78346195D01*
X153421968Y-78322244D01*
X153405715Y-78311882D01*
X153404750Y-78311588D01*
X153391272Y-78316992D01*
X153357004Y-78332471D01*
X153304023Y-78357043D01*
X153234403Y-78389728D01*
X153150223Y-78429544D01*
X153053559Y-78475508D01*
X152946488Y-78526640D01*
X152831085Y-78581959D01*
X152738000Y-78626719D01*
X152617922Y-78684457D01*
X152504840Y-78738678D01*
X152400793Y-78788415D01*
X152307823Y-78832699D01*
X152227968Y-78870563D01*
X152163269Y-78901038D01*
X152115767Y-78923157D01*
X152087502Y-78935951D01*
X152080120Y-78938834D01*
X152085524Y-78928208D01*
X152103195Y-78902031D01*
X152129951Y-78864912D01*
X152146644Y-78842488D01*
X152231945Y-78714805D01*
X152302279Y-78580095D01*
X152354143Y-78445437D01*
X152368889Y-78393344D01*
X152381672Y-78342537D01*
X152724936Y-78171282D01*
X152810720Y-78128257D01*
X152888668Y-78088728D01*
X152956004Y-78054135D01*
X153009953Y-78025923D01*
X153047737Y-78005532D01*
X153066582Y-77994406D01*
X153068200Y-77992908D01*
X153058201Y-77983999D01*
X153030133Y-77962821D01*
X152986881Y-77931452D01*
X152931336Y-77891971D01*
X152866384Y-77846457D01*
X152820921Y-77814920D01*
X152573642Y-77644050D01*
X152573271Y-77398826D01*
X152573470Y-77311371D01*
X152574483Y-77246708D01*
X152576481Y-77202236D01*
X152579635Y-77175353D01*
X152584117Y-77163461D01*
X152588774Y-77162994D01*
X152602025Y-77172568D01*
G37*
X152639984Y-78821813D02*
X152687367Y-78832260D01*
X152741345Y-78845855D01*
X152803389Y-78862310D01*
X152861174Y-78877609D01*
X152907485Y-78889844D01*
X152931675Y-78896208D01*
X152979300Y-78908680D01*
X152979487Y-79209815D01*
X152980061Y-79319163D01*
X152981689Y-79404896D01*
X152984456Y-79468780D01*
X152988445Y-79512582D01*
X152993742Y-79538068D01*
X152995390Y-79542005D01*
X153028415Y-79580416D01*
X153081787Y-79609035D01*
X153151659Y-79625802D01*
X153151906Y-79625835D01*
X153216562Y-79634337D01*
X153224873Y-79490094D01*
X153228412Y-79413922D01*
X153231213Y-79325584D01*
X153232908Y-79238312D01*
X153233242Y-79190275D01*
X153233984Y-79120687D01*
X153236346Y-79073585D01*
X153240623Y-79046091D01*
X153247110Y-79035327D01*
X153249175Y-79034912D01*
X153268098Y-79038239D01*
X153304745Y-79046961D01*
X153353458Y-79059517D01*
X153408578Y-79074347D01*
X153464446Y-79089889D01*
X153515406Y-79104583D01*
X153555798Y-79116869D01*
X153579964Y-79125184D01*
X153584145Y-79127313D01*
X153586652Y-79141530D01*
X153589730Y-79177402D01*
X153593153Y-79231196D01*
X153596697Y-79299181D01*
X153600134Y-79377624D01*
X153601600Y-79415700D01*
X153604791Y-79497417D01*
X153607978Y-79570148D01*
X153610970Y-79630217D01*
X153613578Y-79673948D01*
X153615613Y-79697666D01*
X153616306Y-79700844D01*
X153630175Y-79704868D01*
X153661557Y-79711295D01*
X153692849Y-79716876D01*
X153761730Y-79721244D01*
X153813646Y-79708605D01*
X153847490Y-79679325D01*
X153855696Y-79663096D01*
X153859349Y-79640964D01*
X153862561Y-79597219D01*
X153865192Y-79535645D01*
X153867100Y-79460027D01*
X153868144Y-79374151D01*
X153868300Y-79324597D01*
X153868300Y-79019247D01*
X153896875Y-79026287D01*
X153920104Y-79031706D01*
X153962142Y-79041236D01*
X154016995Y-79053526D01*
X154077850Y-79067045D01*
X154137079Y-79080642D01*
X154187007Y-79093030D01*
X154222526Y-79102878D01*
X154238529Y-79108853D01*
X154238706Y-79109007D01*
X154242278Y-79123915D01*
X154246855Y-79160139D01*
X154252152Y-79213626D01*
X154257884Y-79280327D01*
X154263766Y-79356188D01*
X154269513Y-79437160D01*
X154274840Y-79519189D01*
X154279462Y-79598225D01*
X154283094Y-79670217D01*
X154285451Y-79731111D01*
X154286248Y-79776858D01*
X154286192Y-79784000D01*
X154283963Y-79838588D01*
X154279413Y-79890084D01*
X154273536Y-79927288D01*
X154242415Y-80015116D01*
X154194427Y-80084365D01*
X154128776Y-80136126D01*
X154115950Y-80143187D01*
X154085052Y-80156999D01*
X154050489Y-80167191D01*
X154009904Y-80173637D01*
X153960941Y-80176211D01*
X153901243Y-80174786D01*
X153828454Y-80169237D01*
X153740218Y-80159437D01*
X153634179Y-80145261D01*
X153507979Y-80126583D01*
X153359264Y-80103276D01*
X153353950Y-80102427D01*
X153229893Y-80082517D01*
X153128112Y-80065892D01*
X153045783Y-80051951D01*
X152980080Y-80040093D01*
X152928179Y-80029714D01*
X152887255Y-80020214D01*
X152854483Y-80010991D01*
X152827038Y-80001442D01*
X152802096Y-79990965D01*
X152778616Y-79979836D01*
X152698936Y-79929873D01*
X152639118Y-79866987D01*
X152598102Y-79789334D01*
X152574827Y-79695072D01*
X152568421Y-79614340D01*
X152568232Y-79578170D01*
X152568834Y-79524086D01*
X152570110Y-79455833D01*
X152571941Y-79377156D01*
X152574211Y-79291801D01*
X152576801Y-79203512D01*
X152579595Y-79116034D01*
X152582474Y-79033113D01*
X152585322Y-78958494D01*
X152588021Y-78895922D01*
X152590454Y-78849141D01*
X152592502Y-78821898D01*
X152593444Y-78816562D01*
X152607001Y-78816248D01*
X152639984Y-78821813D01*
G36*
X152639984Y-78821813D02*
G01*
X152687367Y-78832260D01*
X152741345Y-78845855D01*
X152803389Y-78862310D01*
X152861174Y-78877609D01*
X152907485Y-78889844D01*
X152931675Y-78896208D01*
X152979300Y-78908680D01*
X152979487Y-79209815D01*
X152980061Y-79319163D01*
X152981689Y-79404896D01*
X152984456Y-79468780D01*
X152988445Y-79512582D01*
X152993742Y-79538068D01*
X152995390Y-79542005D01*
X153028415Y-79580416D01*
X153081787Y-79609035D01*
X153151659Y-79625802D01*
X153151906Y-79625835D01*
X153216562Y-79634337D01*
X153224873Y-79490094D01*
X153228412Y-79413922D01*
X153231213Y-79325584D01*
X153232908Y-79238312D01*
X153233242Y-79190275D01*
X153233984Y-79120687D01*
X153236346Y-79073585D01*
X153240623Y-79046091D01*
X153247110Y-79035327D01*
X153249175Y-79034912D01*
X153268098Y-79038239D01*
X153304745Y-79046961D01*
X153353458Y-79059517D01*
X153408578Y-79074347D01*
X153464446Y-79089889D01*
X153515406Y-79104583D01*
X153555798Y-79116869D01*
X153579964Y-79125184D01*
X153584145Y-79127313D01*
X153586652Y-79141530D01*
X153589730Y-79177402D01*
X153593153Y-79231196D01*
X153596697Y-79299181D01*
X153600134Y-79377624D01*
X153601600Y-79415700D01*
X153604791Y-79497417D01*
X153607978Y-79570148D01*
X153610970Y-79630217D01*
X153613578Y-79673948D01*
X153615613Y-79697666D01*
X153616306Y-79700844D01*
X153630175Y-79704868D01*
X153661557Y-79711295D01*
X153692849Y-79716876D01*
X153761730Y-79721244D01*
X153813646Y-79708605D01*
X153847490Y-79679325D01*
X153855696Y-79663096D01*
X153859349Y-79640964D01*
X153862561Y-79597219D01*
X153865192Y-79535645D01*
X153867100Y-79460027D01*
X153868144Y-79374151D01*
X153868300Y-79324597D01*
X153868300Y-79019247D01*
X153896875Y-79026287D01*
X153920104Y-79031706D01*
X153962142Y-79041236D01*
X154016995Y-79053526D01*
X154077850Y-79067045D01*
X154137079Y-79080642D01*
X154187007Y-79093030D01*
X154222526Y-79102878D01*
X154238529Y-79108853D01*
X154238706Y-79109007D01*
X154242278Y-79123915D01*
X154246855Y-79160139D01*
X154252152Y-79213626D01*
X154257884Y-79280327D01*
X154263766Y-79356188D01*
X154269513Y-79437160D01*
X154274840Y-79519189D01*
X154279462Y-79598225D01*
X154283094Y-79670217D01*
X154285451Y-79731111D01*
X154286248Y-79776858D01*
X154286192Y-79784000D01*
X154283963Y-79838588D01*
X154279413Y-79890084D01*
X154273536Y-79927288D01*
X154242415Y-80015116D01*
X154194427Y-80084365D01*
X154128776Y-80136126D01*
X154115950Y-80143187D01*
X154085052Y-80156999D01*
X154050489Y-80167191D01*
X154009904Y-80173637D01*
X153960941Y-80176211D01*
X153901243Y-80174786D01*
X153828454Y-80169237D01*
X153740218Y-80159437D01*
X153634179Y-80145261D01*
X153507979Y-80126583D01*
X153359264Y-80103276D01*
X153353950Y-80102427D01*
X153229893Y-80082517D01*
X153128112Y-80065892D01*
X153045783Y-80051951D01*
X152980080Y-80040093D01*
X152928179Y-80029714D01*
X152887255Y-80020214D01*
X152854483Y-80010991D01*
X152827038Y-80001442D01*
X152802096Y-79990965D01*
X152778616Y-79979836D01*
X152698936Y-79929873D01*
X152639118Y-79866987D01*
X152598102Y-79789334D01*
X152574827Y-79695072D01*
X152568421Y-79614340D01*
X152568232Y-79578170D01*
X152568834Y-79524086D01*
X152570110Y-79455833D01*
X152571941Y-79377156D01*
X152574211Y-79291801D01*
X152576801Y-79203512D01*
X152579595Y-79116034D01*
X152582474Y-79033113D01*
X152585322Y-78958494D01*
X152588021Y-78895922D01*
X152590454Y-78849141D01*
X152592502Y-78821898D01*
X152593444Y-78816562D01*
X152607001Y-78816248D01*
X152639984Y-78821813D01*
G37*
X153143185Y-82514067D02*
X153019029Y-82493897D01*
X152906376Y-82475676D01*
X152807367Y-82459747D01*
X152724141Y-82446456D01*
X152658838Y-82436144D01*
X152613598Y-82429157D01*
X152590561Y-82425838D01*
X152588176Y-82425606D01*
X152583743Y-82421189D01*
X152580238Y-82406518D01*
X152577603Y-82379456D01*
X152575778Y-82337869D01*
X152574702Y-82279620D01*
X152574317Y-82202573D01*
X152574434Y-82155714D01*
X153614300Y-82155714D01*
X153746843Y-82176357D01*
X153803743Y-82184938D01*
X153852519Y-82191774D01*
X153886925Y-82196021D01*
X153899243Y-82197000D01*
X153907465Y-82193785D01*
X153913098Y-82181580D01*
X153916603Y-82156544D01*
X153918442Y-82114837D01*
X153919075Y-82052620D01*
X153919100Y-82031714D01*
X153919100Y-81866427D01*
X153877683Y-81821235D01*
X153850882Y-81795145D01*
X153824621Y-81780279D01*
X153788992Y-81772309D01*
X153757982Y-81768943D01*
X153713842Y-81765868D01*
X153686320Y-81768125D01*
X153666828Y-81777897D01*
X153646998Y-81797127D01*
X153633499Y-81812859D01*
X153624339Y-81829010D01*
X153618680Y-81850637D01*
X153615680Y-81882799D01*
X153614500Y-81930555D01*
X153614300Y-81994062D01*
X153614300Y-82155714D01*
X152574434Y-82155714D01*
X152574562Y-82104594D01*
X152574894Y-82055282D01*
X152966600Y-82055282D01*
X153001525Y-82062397D01*
X153042928Y-82070070D01*
X153093398Y-82078362D01*
X153144949Y-82086092D01*
X153189597Y-82092077D01*
X153219357Y-82095134D01*
X153223775Y-82095305D01*
X153233214Y-82093009D01*
X153239548Y-82083270D01*
X153243383Y-82061954D01*
X153245321Y-82024929D01*
X153245967Y-81968061D01*
X153246000Y-81943201D01*
X153245759Y-81878578D01*
X153244375Y-81833970D01*
X153240856Y-81803992D01*
X153234209Y-81783259D01*
X153223442Y-81766386D01*
X153210663Y-81751452D01*
X153177130Y-81722573D01*
X153136365Y-81708199D01*
X153116168Y-81705235D01*
X153062842Y-81701894D01*
X153023704Y-81707641D01*
X152996645Y-81725466D01*
X152979557Y-81758358D01*
X152970329Y-81809306D01*
X152966852Y-81881299D01*
X152966600Y-81917189D01*
X152966600Y-82055282D01*
X152574894Y-82055282D01*
X152575378Y-81983545D01*
X152575476Y-81971575D01*
X152579250Y-81517550D01*
X152616147Y-81437645D01*
X152652269Y-81371551D01*
X152693155Y-81324018D01*
X152742968Y-81292942D01*
X152805873Y-81276220D01*
X152886032Y-81271747D01*
X152940412Y-81273834D01*
X153003136Y-81279662D01*
X153065169Y-81288720D01*
X153116057Y-81299379D01*
X153129730Y-81303325D01*
X153201463Y-81337960D01*
X153269903Y-81391691D01*
X153328289Y-81458450D01*
X153359455Y-81509483D01*
X153395275Y-81580322D01*
X153424039Y-81513459D01*
X153468059Y-81440091D01*
X153527995Y-81385266D01*
X153601435Y-81351014D01*
X153623349Y-81345540D01*
X153686784Y-81338762D01*
X153763186Y-81340336D01*
X153845477Y-81349127D01*
X153926579Y-81364000D01*
X153999415Y-81383818D01*
X154056906Y-81407446D01*
X154074286Y-81417894D01*
X154127914Y-81468293D01*
X154176469Y-81540300D01*
X154217688Y-81630276D01*
X154231623Y-81670511D01*
X154239548Y-81696158D01*
X154245959Y-81720049D01*
X154251018Y-81745131D01*
X154254883Y-81774354D01*
X154257716Y-81810665D01*
X154259676Y-81857013D01*
X154260924Y-81916347D01*
X154261620Y-81991615D01*
X154261925Y-82085765D01*
X154261998Y-82201745D01*
X154262000Y-82229234D01*
X154261820Y-82355178D01*
X154261235Y-82457705D01*
X154260177Y-82538798D01*
X154258578Y-82600438D01*
X154256371Y-82644608D01*
X154253486Y-82673289D01*
X154249857Y-82688463D01*
X154246125Y-82692222D01*
X154231144Y-82690202D01*
X154193239Y-82684399D01*
X154134547Y-82675158D01*
X154057205Y-82662822D01*
X153963352Y-82647736D01*
X153899243Y-82637374D01*
X153855125Y-82630243D01*
X153734662Y-82610687D01*
X153604101Y-82589413D01*
X153465578Y-82566764D01*
X153417450Y-82558877D01*
X153276705Y-82535841D01*
X153223775Y-82527210D01*
X153143185Y-82514067D01*
G36*
X153143185Y-82514067D02*
G01*
X153019029Y-82493897D01*
X152906376Y-82475676D01*
X152807367Y-82459747D01*
X152724141Y-82446456D01*
X152658838Y-82436144D01*
X152613598Y-82429157D01*
X152590561Y-82425838D01*
X152588176Y-82425606D01*
X152583743Y-82421189D01*
X152580238Y-82406518D01*
X152577603Y-82379456D01*
X152575778Y-82337869D01*
X152574702Y-82279620D01*
X152574317Y-82202573D01*
X152574434Y-82155714D01*
X153614300Y-82155714D01*
X153746843Y-82176357D01*
X153803743Y-82184938D01*
X153852519Y-82191774D01*
X153886925Y-82196021D01*
X153899243Y-82197000D01*
X153907465Y-82193785D01*
X153913098Y-82181580D01*
X153916603Y-82156544D01*
X153918442Y-82114837D01*
X153919075Y-82052620D01*
X153919100Y-82031714D01*
X153919100Y-81866427D01*
X153877683Y-81821235D01*
X153850882Y-81795145D01*
X153824621Y-81780279D01*
X153788992Y-81772309D01*
X153757982Y-81768943D01*
X153713842Y-81765868D01*
X153686320Y-81768125D01*
X153666828Y-81777897D01*
X153646998Y-81797127D01*
X153633499Y-81812859D01*
X153624339Y-81829010D01*
X153618680Y-81850637D01*
X153615680Y-81882799D01*
X153614500Y-81930555D01*
X153614300Y-81994062D01*
X153614300Y-82155714D01*
X152574434Y-82155714D01*
X152574562Y-82104594D01*
X152574894Y-82055282D01*
X152966600Y-82055282D01*
X153001525Y-82062397D01*
X153042928Y-82070070D01*
X153093398Y-82078362D01*
X153144949Y-82086092D01*
X153189597Y-82092077D01*
X153219357Y-82095134D01*
X153223775Y-82095305D01*
X153233214Y-82093009D01*
X153239548Y-82083270D01*
X153243383Y-82061954D01*
X153245321Y-82024929D01*
X153245967Y-81968061D01*
X153246000Y-81943201D01*
X153245759Y-81878578D01*
X153244375Y-81833970D01*
X153240856Y-81803992D01*
X153234209Y-81783259D01*
X153223442Y-81766386D01*
X153210663Y-81751452D01*
X153177130Y-81722573D01*
X153136365Y-81708199D01*
X153116168Y-81705235D01*
X153062842Y-81701894D01*
X153023704Y-81707641D01*
X152996645Y-81725466D01*
X152979557Y-81758358D01*
X152970329Y-81809306D01*
X152966852Y-81881299D01*
X152966600Y-81917189D01*
X152966600Y-82055282D01*
X152574894Y-82055282D01*
X152575378Y-81983545D01*
X152575476Y-81971575D01*
X152579250Y-81517550D01*
X152616147Y-81437645D01*
X152652269Y-81371551D01*
X152693155Y-81324018D01*
X152742968Y-81292942D01*
X152805873Y-81276220D01*
X152886032Y-81271747D01*
X152940412Y-81273834D01*
X153003136Y-81279662D01*
X153065169Y-81288720D01*
X153116057Y-81299379D01*
X153129730Y-81303325D01*
X153201463Y-81337960D01*
X153269903Y-81391691D01*
X153328289Y-81458450D01*
X153359455Y-81509483D01*
X153395275Y-81580322D01*
X153424039Y-81513459D01*
X153468059Y-81440091D01*
X153527995Y-81385266D01*
X153601435Y-81351014D01*
X153623349Y-81345540D01*
X153686784Y-81338762D01*
X153763186Y-81340336D01*
X153845477Y-81349127D01*
X153926579Y-81364000D01*
X153999415Y-81383818D01*
X154056906Y-81407446D01*
X154074286Y-81417894D01*
X154127914Y-81468293D01*
X154176469Y-81540300D01*
X154217688Y-81630276D01*
X154231623Y-81670511D01*
X154239548Y-81696158D01*
X154245959Y-81720049D01*
X154251018Y-81745131D01*
X154254883Y-81774354D01*
X154257716Y-81810665D01*
X154259676Y-81857013D01*
X154260924Y-81916347D01*
X154261620Y-81991615D01*
X154261925Y-82085765D01*
X154261998Y-82201745D01*
X154262000Y-82229234D01*
X154261820Y-82355178D01*
X154261235Y-82457705D01*
X154260177Y-82538798D01*
X154258578Y-82600438D01*
X154256371Y-82644608D01*
X154253486Y-82673289D01*
X154249857Y-82688463D01*
X154246125Y-82692222D01*
X154231144Y-82690202D01*
X154193239Y-82684399D01*
X154134547Y-82675158D01*
X154057205Y-82662822D01*
X153963352Y-82647736D01*
X153899243Y-82637374D01*
X153855125Y-82630243D01*
X153734662Y-82610687D01*
X153604101Y-82589413D01*
X153465578Y-82566764D01*
X153417450Y-82558877D01*
X153276705Y-82535841D01*
X153223775Y-82527210D01*
X153143185Y-82514067D01*
G37*
%TD*%
M02*
