M48
; DRILL file {KiCad 7.0.1} date Fri Apr  7 09:45:10 2023
; FORMAT={-:-/ absolute / inch / decimal}
; #@! TF.CreationDate,2023-04-07T09:45:10+02:00
; #@! TF.GenerationSoftware,Kicad,Pcbnew,7.0.1
; #@! TF.FileFunction,MixedPlating,1,2
FMAT,2
INCH
; #@! TA.AperFunction,Plated,PTH,ViaDrill
T1C0.0118
; #@! TA.AperFunction,Plated,PTH,ComponentDrill
T2C0.0787
; #@! TA.AperFunction,NonPlated,NPTH,ComponentDrill
T3C0.0335
%
G90
G05
T1
X5.3543Y-3.0315
X5.3937Y-2.9921
X5.3937Y-3.0315
X5.3937Y-4.0157
X5.3937Y-4.0551
X5.3937Y-4.0945
X5.3937Y-4.3701
X5.3937Y-4.4094
X5.3937Y-4.4882
X5.3937Y-4.5276
X5.4035Y-4.2126
X5.4055Y-3.6654
X5.4134Y-4.3307
X5.4173Y-3.4685
X5.4173Y-3.7559
X5.4252Y-3.3661
X5.4252Y-3.5591
X5.4331Y-3.2165
X5.4331Y-4.3701
X5.4331Y-4.5276
X5.4724Y-3.4331
X5.4764Y-4.0394
X5.4764Y-4.0669
X5.4764Y-4.0945
X5.4882Y-4.7362
X5.5197Y-3.6378
X5.5236Y-4.5394
X5.5276Y-3.2756
X5.5276Y-3.3071
X5.5315Y-3.6713
X5.5512Y-3.0315
X5.5591Y-3.3071
X5.5591Y-4.7244
X5.5669Y-3.2402
X5.5906Y-3.0315
X5.6063Y-4.3898
X5.6102Y-3.4213
X5.6102Y-3.4488
X5.6102Y-4.5984
X5.6209Y-4.2463
X5.6299Y-3.0315
X5.6378Y-3.7441
X5.6378Y-3.9134
X5.6457Y-3.3366
X5.6693Y-3.0315
X5.6693Y-3.8543
X5.6693Y-4.7244
X5.6732Y-4.1614
X5.6772Y-3.4449
X5.6772Y-4.0591
X5.6772Y-4.1181
X5.6969Y-3.8543
X5.7087Y-3.0315
X5.7087Y-4.3012
X5.7087Y-4.5118
X5.7087Y-4.6161
X5.7087Y-4.7244
X5.7185Y-3.3366
X5.725Y-4.4016
X5.7283Y-3.6713
X5.7283Y-4.8386
X5.7362Y-4.1299
X5.7382Y-4.3012
X5.748Y-3.0315
X5.748Y-3.4213
X5.748Y-4.7244
X5.7579Y-3.6713
X5.7677Y-3.8425
X5.7677Y-4.3012
X5.7874Y-3.0315
X5.7874Y-4.6457
X5.7874Y-4.685
X5.7874Y-4.7244
X5.7953Y-4.2126
X5.8268Y-3.0315
X5.8268Y-3.3366
X5.8504Y-4.2717
X5.8543Y-3.1654
X5.8642Y-3.3091
X5.866Y-3.4911
X5.8661Y-3.0315
X5.8701Y-4.4646
X5.878Y-3.1969
X5.8858Y-4.0787
X5.8937Y-4.5433
X5.8957Y-3.2776
X5.8957Y-3.3091
X5.8957Y-4.311
X5.9252Y-3.622
X5.9252Y-3.6614
X5.9252Y-3.7008
X5.9252Y-3.7402
X5.9252Y-3.7795
X5.9252Y-4.252
X5.9252Y-4.2815
X5.9252Y-4.311
X6.0236Y-3.3465
X6.0236Y-3.3858
X6.0236Y-3.4252
X6.0236Y-3.622
X6.0236Y-3.6614
X6.0236Y-3.7008
X6.0236Y-3.7402
X6.0236Y-3.7795
X6.063Y-3.3465
X6.063Y-3.3858
X6.063Y-4.7244
X6.063Y-4.7638
X6.063Y-4.8031
X6.063Y-4.8425
X6.063Y-4.8819
T3
X5.6988Y-4.7795
X5.6988Y-4.8878
T2
G00X5.4528Y-4.6299
M15
G01X5.5118Y-4.6299
M16
G05
G00X5.9055Y-4.6299
M15
G01X5.9646Y-4.6299
M16
G05
T0
M30
